<svg width="503" height="500" viewBox="0 0 503 500" fill="none" xmlns="http://www.w3.org/2000/svg">
<g clip-path="url(#clip0_1_1037)">
<path opacity="0.6" d="M93.7072 271.153L51.9125 247.012L85.1263 227.843L126.921 251.964L93.7072 271.153Z" fill="#C86CFD"/>
<path d="M95.3509 280.225L36.2021 246.072L83.5041 218.771L142.653 252.924L95.3509 280.225ZM39.0411 246.072L95.3509 278.582L139.792 252.924L83.4827 220.415L39.0411 246.072Z" fill="#C86CFD"/>
<path d="M93.7072 215.335L51.9125 191.214L85.1263 172.024L126.921 196.166L93.7072 215.335Z" fill="url(#paint0_linear_1_1037)"/>
<path d="M126.921 222.059V196.166L93.7073 215.335V241.227L126.921 222.059Z" fill="url(#paint1_linear_1_1037)"/>
<path d="M51.9125 191.214V217.106L93.7072 241.227V215.335L51.9125 191.214Z" fill="url(#paint2_linear_1_1037)"/>
<path d="M77.6127 185.152L59.5116 195.611V201.204L64.8907 204.299V198.706L82.9918 188.268L77.6127 185.152Z" fill="white"/>
<path d="M89.1179 191.79L71.0168 202.228V207.842L76.3746 210.937V205.345L94.4757 194.886L89.1179 191.79Z" fill="white"/>
<path d="M100.623 198.429L82.5222 208.888V214.481L87.9013 217.576V211.983L105.981 201.545L100.623 198.429Z" fill="white"/>
<path d="M77.6127 185.152V187.415L81.0707 189.357L82.9918 188.268L77.6127 185.152Z" fill="#1CA0C2"/>
<path d="M61.4754 200.051L59.5116 201.204L64.8907 204.299V201.972L61.4754 200.051Z" fill="#1CA0C2"/>
<path d="M77.6127 185.152L59.5116 195.611V201.204L61.4754 200.051V196.743L77.634 187.415L77.6127 185.152Z" fill="#982CD6"/>
<path d="M89.1179 191.79V194.053L92.5546 195.996L94.4757 194.886L89.1179 191.79Z" fill="#1CA0C2"/>
<path d="M72.9593 206.69L71.0168 207.842L76.3746 210.937V208.611L72.9593 206.69Z" fill="#1CA0C2"/>
<path d="M89.1179 191.79L71.0168 202.228V207.842L72.9593 206.69V203.381L89.1179 194.053V191.79Z" fill="#982CD6"/>
<path d="M100.623 198.429V200.692L104.06 202.634L105.981 201.545L100.623 198.429Z" fill="#1CA0C2"/>
<path d="M84.4647 213.328L82.5222 214.481L87.9013 217.576V215.249L84.4647 213.328Z" fill="#1CA0C2"/>
<path d="M100.623 198.429L82.5222 208.888V214.481L84.4647 213.328V210.02L100.623 200.692V198.429Z" fill="#982CD6"/>
<path d="M310.75 500C261.719 500 212.709 489.22 175.376 467.683C139.088 446.721 119.087 418.822 119.087 389.109C119.087 359.396 139.067 331.498 175.376 310.536C250 267.439 371.457 267.439 446.102 310.536C482.39 331.498 502.391 359.396 502.391 389.109C502.391 418.822 482.411 446.721 446.102 467.683C408.79 489.22 359.759 499.979 310.75 500ZM310.75 279.628C261.975 279.628 213.222 290.343 176.101 311.774C140.262 332.458 120.539 359.93 120.539 389.109C120.539 418.289 140.262 445.761 176.101 466.445C250.342 509.307 371.158 509.307 445.398 466.445C481.237 445.761 500.961 418.289 500.961 389.109C500.961 359.93 481.216 332.458 445.398 311.774C408.278 290.343 359.503 279.628 310.75 279.628Z" fill="#C86CFD"/>
<path opacity="0.5" d="M310.75 468.131C386.352 468.131 447.639 432.752 447.639 389.109C447.639 345.467 386.352 310.088 310.75 310.088C235.148 310.088 173.86 345.467 173.86 389.109C173.86 432.752 235.148 468.131 310.75 468.131Z" fill="#C86CFD"/>
<path d="M397.925 82.0952L257.77 1.10994C255.507 -0.192139 253.437 -0.298867 251.836 0.576304L242.316 6.12617L248.527 9.883V338.243C248.527 345.031 252.668 352.928 257.749 355.874L396.26 435.92L394.275 442.943L403.859 437.372H403.838C405.823 436.262 407.083 433.636 407.083 429.879V99.7267C407.147 92.9175 403.006 85.0196 397.925 82.0952Z" fill="url(#paint3_linear_1_1037)"/>
<path d="M388.192 442.495L248.058 361.509C242.956 358.564 238.836 350.666 238.836 343.878V13.7466C238.836 6.95866 242.977 3.82086 248.058 6.76655L388.192 87.7519C393.293 90.6976 397.413 98.5954 397.413 105.383V435.536C397.413 442.324 393.293 445.44 388.192 442.495Z" fill="url(#paint4_linear_1_1037)"/>
<path d="M397.413 435.75L238.815 344.113V13.5118L397.413 105.149V435.75Z" fill="url(#paint5_linear_1_1037)"/>
<path opacity="0.4" d="M372.076 442.089L230.533 360.314C225.218 357.24 221.952 351.584 221.952 345.457V34.5372C221.952 30.1827 226.648 27.4718 230.426 29.649L371.969 111.445C377.284 114.519 380.55 120.176 380.55 126.302V437.222C380.55 441.555 375.854 444.266 372.076 442.089Z" fill="white"/>
<path d="M374.915 443.498C373.847 443.498 372.759 443.221 371.777 442.644L230.234 360.848C224.748 357.689 221.333 351.776 221.333 345.436V34.5372C221.333 32.2745 222.507 30.2467 224.471 29.1154C226.434 27.9841 228.782 27.9841 230.746 29.1154L372.289 110.912C377.775 114.071 381.169 119.984 381.169 126.323V437.244C381.169 439.506 379.995 441.534 378.031 442.666C377.049 443.199 375.982 443.498 374.915 443.498ZM227.608 29.4996C226.755 29.4996 225.879 29.7344 225.09 30.1827C223.51 31.0792 222.571 32.7228 222.571 34.5372V345.458C222.571 351.349 225.73 356.835 230.832 359.781L372.374 441.577C373.954 442.495 375.833 442.495 377.391 441.577C378.97 440.68 379.91 439.037 379.91 437.222V126.302C379.91 120.411 376.75 114.925 371.649 111.979L230.106 30.1827C229.316 29.7344 228.462 29.4996 227.608 29.4996Z" fill="white"/>
<path d="M328.595 61.1125L307.633 49.0095C306.929 48.6039 306.353 47.494 306.353 46.5547C306.353 45.6155 306.929 45.1673 307.633 45.5729L328.595 57.6758C329.299 58.0814 329.875 59.1914 329.875 60.1306C329.875 61.0911 329.299 61.518 328.595 61.1125Z" fill="#0063AD"/>
<path opacity="0.2" d="M337.197 248.762C340.057 250.427 342.384 248.655 342.384 244.834V130.016C342.384 126.195 340.057 121.755 337.197 120.09L222.379 53.8123C222.101 55.1357 221.931 56.5232 221.931 57.9534V182.206L337.197 248.762Z" fill="#041860"/>
<path d="M250.939 206.22L250.961 209.08C248.506 207.949 245.389 207.437 241.697 207.693C228.697 208.653 213.563 218.921 207.906 230.639C206.327 233.884 205.665 236.894 205.772 239.541L203.146 238.665L205.985 242.849V242.828C208.333 246.478 213.115 248.527 219.732 248.036C232.731 247.076 247.865 236.808 253.522 225.09C256.361 219.22 256.297 214.118 253.885 210.575L250.939 206.22Z" fill="#F4A856"/>
<path d="M250.555 220.714C244.877 232.433 229.743 242.721 216.765 243.66C203.765 244.621 197.831 235.869 203.509 224.151C209.187 212.432 224.321 202.143 237.299 201.204C250.299 200.265 256.233 208.995 250.555 220.714Z" fill="#FCCC6B"/>
<path d="M250.555 220.714C244.877 232.433 229.743 242.721 216.765 243.66C203.765 244.621 197.831 235.869 203.509 224.151C209.187 212.432 224.321 202.143 237.299 201.204C250.299 200.265 256.233 208.995 250.555 220.714Z" fill="url(#paint6_radial_1_1037)"/>
<path d="M235.186 234.119C229.978 237.684 223.958 240.117 218.43 240.523C213.072 240.907 208.931 239.391 206.775 236.211C204.619 233.03 204.726 228.633 207.074 223.788C211.855 213.883 224.684 205.174 235.656 204.384C241.014 204 245.155 205.516 247.31 208.696C249.466 211.877 249.36 216.274 247.012 221.119C244.642 226.008 240.288 230.618 235.186 234.119ZM219.156 211.172C214.118 214.63 209.849 219.156 207.501 224.001C205.238 228.676 205.11 232.923 207.159 235.933C209.209 238.943 213.2 240.416 218.387 240.032C229.209 239.242 241.846 230.661 246.563 220.906C248.826 216.231 248.954 211.983 246.905 208.974C244.856 205.964 240.864 204.491 235.677 204.875C230.213 205.26 224.279 207.65 219.156 211.172Z" fill="#F4A856"/>
<path d="M246.777 220.991C242.017 230.832 229.316 239.455 218.408 240.266C207.501 241.056 202.527 233.735 207.287 223.894C212.047 214.054 224.748 205.43 235.656 204.619C246.563 203.808 251.537 211.151 246.777 220.991Z" fill="url(#paint7_radial_1_1037)"/>
<path d="M207.928 224.855C212.688 215.014 225.388 206.391 236.296 205.58C241.462 205.196 245.283 206.647 247.396 209.315C245.496 206.049 241.398 204.192 235.656 204.619C224.748 205.409 212.047 214.054 207.287 223.894C204.769 229.081 204.982 233.564 207.33 236.552C205.622 233.607 205.686 229.508 207.928 224.855Z" fill="#F4A856"/>
<path d="M249.936 219.817C244.258 231.536 229.124 241.825 216.146 242.764C209.934 243.212 205.324 241.462 202.848 238.196C205.132 242.017 209.998 244.173 216.765 243.66C229.764 242.7 244.898 232.433 250.555 220.714C253.522 214.609 253.309 209.294 250.598 205.772C252.711 209.273 252.647 214.203 249.936 219.817Z" fill="#FCE586"/>
<path d="M246.606 234.588C249.509 231.664 251.9 228.441 253.522 225.09C256.361 219.22 256.297 214.118 253.885 210.575L250.918 206.199C250.875 206.135 250.832 206.092 250.79 206.028C250.726 205.943 250.662 205.836 250.598 205.75C250.619 205.772 250.619 205.814 250.64 205.836C248.164 202.527 243.575 200.713 237.299 201.182C229.956 201.716 221.909 205.238 215.292 210.34L238.687 234.567H246.606V234.588Z" fill="#F4A856"/>
<path d="M322.34 129.568L155.716 33.3632C154.414 32.6161 153.24 32.5734 152.322 33.0857L149.846 34.5372C149.846 34.5372 150.423 34.6226 150.999 34.708C150.7 35.4124 150.529 36.2875 150.529 37.3121V152.109C150.529 155.93 152.856 160.37 155.716 162.035L322.34 258.239C322.661 258.432 322.959 258.56 323.258 258.645V259.947L325.756 258.496H325.734C326.844 257.855 327.527 256.382 327.527 254.29V139.494C327.527 135.673 325.201 131.233 322.34 129.568Z" fill="white"/>
<path d="M319.928 259.648L153.304 163.443C150.444 161.778 148.117 157.339 148.117 153.518V38.6996C148.117 34.8787 150.444 33.107 153.304 34.772L319.928 130.977C322.789 132.642 325.115 137.082 325.115 140.902V255.699C325.115 259.541 322.789 261.292 319.928 259.648Z" fill="url(#paint8_linear_1_1037)"/>
<path d="M270.257 136.932V120.539L273.736 122.545C274.398 122.929 274.974 123.314 275.444 123.741C275.935 124.167 276.362 124.637 276.746 125.171C277.13 125.704 277.408 126.302 277.6 126.964C277.792 127.625 277.877 128.351 277.877 129.141C277.877 131.169 277.173 131.895 275.785 131.318C276.618 131.98 277.258 132.77 277.664 133.666C278.091 134.563 278.283 135.609 278.304 136.825C278.304 138.384 277.963 139.366 277.301 139.792C276.618 140.198 275.636 140.049 274.334 139.28L270.257 136.932ZM272.84 128.735L273.651 129.205C274.419 129.653 274.932 129.76 275.209 129.547C275.487 129.333 275.636 128.778 275.636 127.903C275.636 127.433 275.593 127.049 275.487 126.708C275.401 126.366 275.23 126.067 275.017 125.79C274.804 125.512 274.547 125.277 274.27 125.085C273.992 124.872 273.63 124.658 273.181 124.381L272.818 124.167V128.735H272.84ZM272.84 136.334L273.779 136.889C274.547 137.338 275.081 137.444 275.38 137.188C275.679 136.953 275.828 136.334 275.828 135.395C275.828 134.413 275.657 133.602 275.316 132.962C274.974 132.321 274.419 131.788 273.63 131.318L272.818 130.849V136.334H272.84Z" fill="white"/>
<path d="M279.244 142.119L282.125 127.391L284.815 128.949L287.696 147.007L285.284 145.62L284.708 141.479L282.253 140.07L281.677 143.528L279.244 142.119ZM282.531 138.277L284.431 139.366L283.491 132.087L282.531 138.277Z" fill="white"/>
<path d="M289.084 147.818V131.425L290.855 132.45L294.335 143.741V134.456L296.469 135.694V152.088L294.783 151.106L291.282 139.323V149.078L289.084 147.818Z" fill="white"/>
<path d="M298.604 153.304V136.911L301.187 138.405V145.513L303.983 140.006L306.459 141.436L303.748 147.199L306.737 157.979L304.154 156.485L301.699 147.37L301.187 148.139V154.777L298.604 153.304Z" fill="white"/>
<path d="M194.117 163.187L162.483 144.937V140.689L194.117 158.961V163.187Z" fill="white"/>
<path d="M232.987 185.643L201.353 167.371V163.145L232.987 181.416V185.643Z" fill="white"/>
<path d="M271.858 208.077L240.245 189.827V185.6L271.858 203.851V208.077Z" fill="white"/>
<path d="M310.75 230.533L279.115 212.261V208.034L310.75 226.306V230.533Z" fill="white"/>
<path opacity="0.2" d="M319.928 130.977L153.304 34.772C150.444 33.107 148.117 34.8787 148.117 38.6996V153.496C148.117 154.201 148.224 154.905 148.352 155.631C157.211 149.227 193.263 129.397 262.124 167.392C287.184 181.224 308.146 179.389 325.137 170.338V140.881C325.115 137.082 322.789 132.642 319.928 130.977Z" fill="white"/>
<path opacity="0.2" d="M217.17 125.149C240.565 122.14 260.118 114.968 276.362 105.832L153.304 34.772C150.444 33.107 148.117 34.8787 148.117 38.6996V148.566C160.391 138.896 181.395 129.76 217.17 125.149Z" fill="white"/>
<path d="M254.995 402.963L253.394 405.332C252.028 403.005 249.744 400.828 246.542 398.95C235.293 392.375 217 392.311 205.687 398.758C202.549 400.551 200.286 402.643 198.877 404.905L197.191 402.707L197.17 407.744C197.042 412.099 199.838 416.475 205.558 419.826C216.808 426.4 235.101 426.464 246.414 420.018C252.071 416.795 254.91 412.526 254.931 408.256L254.995 402.963Z" fill="#F4A856"/>
<path d="M246.478 414.724C235.165 421.192 216.872 421.107 205.622 414.532C194.373 407.958 194.416 397.413 205.729 390.945C217.042 384.477 235.336 384.563 246.585 391.137C257.834 397.712 257.791 408.257 246.478 414.724Z" fill="#FCCC6B"/>
<path d="M246.478 414.724C235.165 421.192 216.872 421.107 205.622 414.532C194.373 407.958 194.416 397.413 205.729 390.945C217.042 384.477 235.336 384.563 246.585 391.137C257.834 397.712 257.791 408.257 246.478 414.724Z" fill="url(#paint9_radial_1_1037)"/>
<path d="M226.242 417.072C219.924 417.072 213.606 415.663 208.803 412.867C204.15 410.156 201.609 406.549 201.631 402.728C201.652 398.907 204.235 395.321 208.91 392.653C218.451 387.188 233.948 387.274 243.447 392.802C248.1 395.513 250.64 399.121 250.619 402.941C250.598 406.762 248.015 410.348 243.34 413.017C238.601 415.727 232.432 417.072 226.242 417.072ZM225.986 389.088C219.881 389.088 213.798 390.412 209.123 393.08C204.619 395.663 202.122 399.078 202.1 402.728C202.079 406.378 204.555 409.836 209.038 412.44C218.408 417.905 233.671 417.969 243.084 412.59C247.588 410.007 250.085 406.592 250.107 402.941C250.128 399.291 247.652 395.833 243.169 393.229C238.452 390.476 232.219 389.088 225.986 389.088Z" fill="#F4A856"/>
<path d="M243.212 412.824C233.713 418.246 218.366 418.182 208.91 412.675C199.454 407.168 199.496 398.288 208.995 392.866C218.494 387.444 233.841 387.509 243.298 393.016C252.754 398.523 252.711 407.403 243.212 412.824Z" fill="url(#paint10_radial_1_1037)"/>
<path d="M208.995 394.019C218.494 388.597 233.841 388.661 243.298 394.168C247.759 396.773 250.107 400.124 250.342 403.518C250.619 399.74 248.292 395.919 243.319 392.994C233.863 387.487 218.515 387.423 209.016 392.845C204.022 395.705 201.631 399.526 201.887 403.304C202.143 399.932 204.513 396.58 208.995 394.019Z" fill="#F4A856"/>
<path d="M246.499 413.636C235.186 420.103 216.893 420.018 205.644 413.443C200.265 410.306 197.468 406.25 197.255 402.152C196.978 406.592 199.774 411.117 205.644 414.532C216.893 421.107 235.186 421.171 246.499 414.724C252.391 411.352 255.23 406.869 254.995 402.408C254.739 406.506 251.9 410.54 246.499 413.636Z" fill="#FCE586"/>
<path d="M259.968 395.897L258.368 398.267C257.001 395.94 254.717 393.763 251.516 391.884C240.266 385.31 221.973 385.246 210.66 391.692C207.522 393.485 205.26 395.577 203.851 397.84L202.164 395.641L202.143 400.679C202.015 405.033 204.811 409.409 210.532 412.76C221.781 419.335 240.074 419.399 251.387 412.953C257.044 409.729 259.883 405.46 259.904 401.191L259.968 395.897Z" fill="#F4A856"/>
<path d="M251.452 407.637C240.138 414.105 221.845 414.02 210.596 407.445C199.347 400.871 199.39 390.326 210.703 383.858C222.016 377.391 240.309 377.476 251.558 384.051C262.808 390.625 262.765 401.191 251.452 407.637Z" fill="#FCCC6B"/>
<path d="M251.452 407.637C240.138 414.105 221.845 414.02 210.596 407.445C199.347 400.871 199.39 390.326 210.703 383.858C222.016 377.391 240.309 377.476 251.558 384.051C262.808 390.625 262.765 401.191 251.452 407.637Z" fill="url(#paint11_radial_1_1037)"/>
<path d="M231.195 410.007C224.876 410.007 218.558 408.598 213.755 405.802C209.102 403.091 206.562 399.483 206.583 395.663C206.604 391.842 209.187 388.256 213.862 385.587C223.403 380.123 238.9 380.208 248.399 385.737C253.052 388.448 255.593 392.055 255.571 395.876C255.55 399.697 252.967 403.283 248.292 405.951C243.575 408.662 237.385 410.007 231.195 410.007ZM230.938 382.001C224.834 382.001 218.75 383.325 214.075 385.993C209.571 388.576 207.074 391.991 207.053 395.641C207.031 399.291 209.507 402.749 213.99 405.353C223.361 410.818 238.623 410.882 248.036 405.503C252.54 402.92 255.038 399.505 255.059 395.855C255.08 392.205 252.604 388.747 248.122 386.142C243.404 383.389 237.171 382.001 230.938 382.001Z" fill="#F4A856"/>
<path d="M248.164 405.738C238.665 411.159 223.318 411.095 213.862 405.588C204.406 400.081 204.448 391.201 213.947 385.78C223.446 380.358 238.794 380.422 248.25 385.929C257.706 391.457 257.663 400.316 248.164 405.738Z" fill="url(#paint12_radial_1_1037)"/>
<path d="M213.947 386.954C223.446 381.532 238.794 381.596 248.25 387.103C252.711 389.707 255.059 393.058 255.294 396.452C255.571 392.674 253.245 388.853 248.271 385.929C238.815 380.422 223.467 380.358 213.969 385.78C208.974 388.64 206.583 392.461 206.839 396.239C207.095 392.845 209.465 389.515 213.947 386.954Z" fill="#F4A856"/>
<path d="M251.452 406.549C240.138 413.017 221.845 412.931 210.596 406.357C205.217 403.219 202.421 399.163 202.207 395.065C201.93 399.505 204.726 404.03 210.596 407.445C221.845 414.02 240.138 414.084 251.452 407.637C257.343 404.265 260.182 399.782 259.947 395.321C259.691 399.419 256.852 403.454 251.452 406.549Z" fill="#FCE586"/>
<path d="M298.028 431.075L296.427 433.444C295.061 431.118 292.777 428.94 289.575 427.062C278.326 420.488 260.032 420.423 248.719 426.87C245.581 428.663 243.319 430.755 241.91 433.017L240.224 430.819L240.202 435.856C240.074 440.211 242.871 444.587 248.591 447.938C259.84 454.512 278.134 454.576 289.447 448.13C295.103 444.907 297.942 440.638 297.964 436.369L298.028 431.075Z" fill="#F4A856"/>
<path d="M298.029 431.06C298.071 421.853 285.174 414.331 269.223 414.26C253.273 414.188 240.309 421.594 240.268 430.801C240.227 440.008 253.123 447.53 269.074 447.602C285.024 447.673 297.988 440.267 298.029 431.06Z" fill="#FCCC6B"/>
<path d="M289.511 442.836C278.198 449.304 259.904 449.219 248.655 442.644C237.406 436.07 237.449 425.525 248.762 419.057C260.075 412.59 278.368 412.675 289.618 419.25C300.867 425.803 300.824 436.369 289.511 442.836Z" fill="url(#paint13_radial_1_1037)"/>
<path d="M269.275 445.184C262.957 445.184 256.638 443.776 251.836 440.979C247.182 438.268 244.642 434.661 244.664 430.84C244.685 427.019 247.268 423.433 251.942 420.765C261.484 415.301 276.981 415.386 286.48 420.914C291.133 423.625 293.673 427.233 293.652 431.054C293.63 434.874 291.048 438.461 286.373 441.129C281.634 443.84 275.465 445.184 269.275 445.184ZM269.019 417.179C262.914 417.179 256.831 418.502 252.156 421.171C247.652 423.753 245.155 427.169 245.133 430.819C245.112 434.469 247.588 437.927 252.071 440.531C261.441 445.996 276.703 446.06 286.117 440.68C290.621 438.098 293.118 434.682 293.14 431.032C293.161 427.382 290.685 423.924 286.202 421.32C281.485 418.566 275.231 417.179 269.019 417.179Z" fill="#F4A856"/>
<path d="M286.245 440.915C276.746 446.337 261.399 446.273 251.942 440.766C242.486 435.259 242.529 426.379 252.028 420.957C261.527 415.535 276.874 415.599 286.33 421.106C295.786 426.635 295.744 435.493 286.245 440.915Z" fill="url(#paint14_radial_1_1037)"/>
<path d="M252.028 422.131C261.527 416.709 276.874 416.773 286.33 422.281C290.791 424.885 293.139 428.236 293.374 431.63C293.652 427.852 291.325 424.01 286.352 421.106C276.895 415.599 261.548 415.535 252.049 420.957C247.054 423.817 244.664 427.638 244.92 431.416C245.155 428.022 247.545 424.693 252.028 422.131Z" fill="#F4A856"/>
<path d="M289.511 441.726C278.198 448.194 259.904 448.109 248.655 441.534C243.276 438.396 240.48 434.341 240.266 430.242C239.989 434.682 242.785 439.208 248.655 442.623C259.904 449.197 278.198 449.261 289.511 442.815C295.402 439.442 298.241 434.96 298.006 430.52C297.75 434.597 294.933 438.631 289.511 441.726Z" fill="#FCE586"/>
<path d="M240.267 441.086L238.666 443.455C237.299 441.129 235.015 438.951 231.814 437.073C220.564 430.499 202.271 430.435 190.958 436.881C187.82 438.674 185.558 440.766 184.149 443.028L182.463 440.83L182.441 445.867C182.313 450.222 185.109 454.598 190.83 457.949C202.079 464.523 220.372 464.588 231.686 458.141C237.342 454.918 240.181 450.649 240.202 446.38L240.267 441.086Z" fill="#F4A856"/>
<path d="M240.248 441.091C240.289 431.884 227.393 424.362 211.442 424.291C195.492 424.219 182.528 431.625 182.487 440.832C182.445 450.039 195.342 457.561 211.293 457.632C227.243 457.704 240.207 450.298 240.248 441.091Z" fill="#FCCC6B"/>
<path d="M231.75 452.847C220.436 459.315 202.143 459.23 190.894 452.655C179.645 446.081 179.688 435.536 191.001 429.068C202.314 422.601 220.607 422.686 231.856 429.261C243.105 435.814 243.063 446.38 231.75 452.847Z" fill="url(#paint15_radial_1_1037)"/>
<path d="M211.493 455.196C205.174 455.196 198.856 453.787 194.053 450.99C189.4 448.28 186.86 444.672 186.881 440.851C186.902 437.03 189.485 433.444 194.16 430.776C203.701 425.312 219.198 425.397 228.697 430.926C233.351 433.636 235.891 437.244 235.869 441.065C235.848 444.886 233.265 448.472 228.59 451.14C223.873 453.851 217.683 455.196 211.493 455.196ZM211.236 427.211C205.132 427.211 199.048 428.535 194.373 431.203C189.869 433.786 187.372 437.201 187.351 440.851C187.329 444.501 189.805 447.959 194.288 450.564C203.659 456.028 218.921 456.092 228.334 450.713C232.838 448.13 235.336 444.715 235.357 441.065C235.378 437.415 232.902 433.957 228.42 431.352C223.702 428.599 217.469 427.211 211.236 427.211Z" fill="#F4A856"/>
<path d="M228.462 450.948C218.964 456.37 203.616 456.305 194.16 450.798C184.704 445.291 184.747 436.411 194.245 430.99C203.744 425.568 219.092 425.632 228.548 431.139C238.004 436.646 237.961 445.505 228.462 450.948Z" fill="url(#paint16_radial_1_1037)"/>
<path d="M194.245 432.142C203.744 426.72 219.092 426.784 228.548 432.292C233.009 434.896 235.357 438.247 235.592 441.641C235.869 437.863 233.543 434.042 228.569 431.118C219.113 425.61 203.765 425.546 194.267 430.968C189.272 433.828 186.881 437.649 187.137 441.428C187.393 438.055 189.763 434.704 194.245 432.142Z" fill="#F4A856"/>
<path d="M231.75 451.738C220.436 458.205 202.143 458.12 190.894 451.545C185.515 448.408 182.719 444.352 182.505 440.254C182.228 444.693 185.024 449.219 190.894 452.634C202.143 459.208 220.436 459.272 231.75 452.826C237.641 449.454 240.48 444.971 240.245 440.51C239.989 444.629 237.15 448.664 231.75 451.738Z" fill="#FCE586"/>
<path d="M267.589 430.477L265.988 432.847C264.622 430.52 262.338 428.343 259.136 426.464C247.887 419.89 229.594 419.826 218.28 426.272C215.143 428.065 212.88 430.157 211.471 432.42L209.785 430.221L209.763 435.259C209.635 439.613 212.432 443.989 218.152 447.34C229.401 453.915 247.695 453.979 259.008 447.532C264.664 444.309 267.503 440.04 267.525 435.771L267.589 430.477Z" fill="#F4A856"/>
<path d="M267.574 430.457C267.615 421.25 254.719 413.728 238.768 413.657C222.818 413.585 209.854 420.991 209.813 430.198C209.771 439.405 222.668 446.927 238.619 446.998C254.569 447.07 267.533 439.664 267.574 430.457Z" fill="#FCCC6B"/>
<path d="M259.072 442.217C247.759 448.685 229.466 448.6 218.216 442.025C206.967 435.451 207.01 424.906 218.323 418.438C229.636 411.971 247.93 412.056 259.179 418.63C270.428 425.205 270.385 435.771 259.072 442.217Z" fill="url(#paint17_radial_1_1037)"/>
<path d="M238.836 444.587C232.518 444.587 226.2 443.178 221.397 440.382C216.744 437.671 214.203 434.063 214.225 430.242C214.246 426.422 216.829 422.835 221.504 420.167C231.045 414.703 246.542 414.788 256.041 420.317C260.694 423.028 263.234 426.635 263.213 430.456C263.192 434.277 260.609 437.863 255.934 440.531C251.195 443.221 245.026 444.587 238.836 444.587ZM238.58 416.581C232.475 416.581 226.392 417.905 221.717 420.573C217.213 423.156 214.716 426.571 214.694 430.221C214.673 433.871 217.149 437.329 221.632 439.933C231.002 445.398 246.265 445.462 255.678 440.083C260.182 437.5 262.679 434.085 262.701 430.435C262.722 426.784 260.246 423.326 255.763 420.722C251.046 417.969 244.792 416.581 238.58 416.581Z" fill="#F4A856"/>
<path d="M255.806 440.318C246.307 445.739 230.96 445.675 221.504 440.168C212.047 434.661 212.09 425.781 221.589 420.359C231.088 414.938 246.435 415.002 255.891 420.509C265.348 426.016 265.305 434.896 255.806 440.318Z" fill="url(#paint18_radial_1_1037)"/>
<path d="M221.589 421.512C231.088 416.09 246.435 416.154 255.891 421.661C260.353 424.266 262.701 427.617 262.935 431.011C263.213 427.233 260.886 423.412 255.913 420.487C246.457 414.98 231.109 414.916 221.61 420.338C216.615 423.198 214.225 427.019 214.481 430.797C214.716 427.425 217.106 424.095 221.589 421.512Z" fill="#F4A856"/>
<path d="M259.072 441.129C247.759 447.596 229.466 447.511 218.216 440.937C212.837 437.799 210.041 433.743 209.828 429.645C209.55 434.085 212.346 438.61 218.216 442.025C229.466 448.6 247.759 448.664 259.072 442.217C264.963 438.845 267.802 434.362 267.568 429.901C267.311 433.999 264.494 438.034 259.072 441.129Z" fill="#FCE586"/>
<path d="M275.06 424.693L273.459 427.062C272.093 424.735 269.809 422.558 266.607 420.68C255.358 414.105 237.065 414.041 225.751 420.488C222.614 422.281 220.351 424.372 218.942 426.635L217.256 424.436L217.234 429.474C217.106 433.829 219.903 438.204 225.623 441.556C236.872 448.13 255.166 448.194 266.479 441.748C272.135 438.525 274.974 434.255 274.996 429.986L275.06 424.693Z" fill="#F4A856"/>
<path d="M266.543 436.454C255.23 442.922 236.937 442.836 225.687 436.262C214.438 429.687 214.481 419.143 225.794 412.675C237.107 406.207 255.401 406.293 266.65 412.867C277.899 419.42 277.856 429.986 266.543 436.454Z" fill="#FCCC6B"/>
<path d="M266.543 436.454C255.23 442.922 236.937 442.836 225.687 436.262C214.438 429.687 214.481 419.143 225.794 412.675C237.107 406.207 255.401 406.293 266.65 412.867C277.899 419.42 277.856 429.986 266.543 436.454Z" fill="url(#paint19_radial_1_1037)"/>
<path d="M246.307 438.802C239.989 438.802 233.671 437.393 228.868 434.597C224.214 431.886 221.674 428.279 221.696 424.458C221.717 420.637 224.3 417.051 228.975 414.383C238.516 408.918 254.013 409.004 263.512 414.532C268.165 417.243 270.705 420.85 270.684 424.671C270.663 428.492 268.08 432.078 263.405 434.746C258.666 437.457 252.497 438.802 246.307 438.802ZM246.051 410.818C239.946 410.818 233.863 412.141 229.188 414.81C224.684 417.392 222.187 420.808 222.165 424.458C222.144 428.108 224.62 431.566 229.103 434.17C238.473 439.635 253.735 439.699 263.149 434.319C267.653 431.737 270.15 428.321 270.172 424.671C270.193 421.021 267.717 417.563 263.234 414.959C258.517 412.184 252.263 410.818 246.051 410.818Z" fill="#F4A856"/>
<path d="M263.277 434.533C253.778 439.955 238.431 439.891 228.975 434.384C219.518 428.876 219.561 419.997 229.06 414.575C238.559 409.153 253.906 409.217 263.362 414.724C272.818 420.253 272.776 429.111 263.277 434.533Z" fill="url(#paint20_radial_1_1037)"/>
<path d="M229.06 415.749C238.559 410.327 253.906 410.391 263.362 415.898C267.824 418.502 270.172 421.854 270.406 425.248C270.684 421.469 268.357 417.649 263.384 414.724C253.928 409.217 238.58 409.153 229.081 414.575C224.086 417.435 221.696 421.256 221.952 425.034C222.187 421.64 224.577 418.31 229.06 415.749Z" fill="#F4A856"/>
<path d="M266.543 435.344C255.23 441.812 236.936 441.726 225.687 435.152C220.308 432.014 217.512 427.958 217.298 423.86C217.021 428.3 219.817 432.825 225.687 436.241C236.936 442.815 255.23 442.879 266.543 436.433C272.434 433.06 275.273 428.577 275.038 424.116C274.782 428.236 271.965 432.249 266.543 435.344Z" fill="#FCE586"/>
<path d="M279.009 413.593L277.408 415.962C276.042 413.636 273.758 411.458 270.556 409.58C259.307 403.005 241.013 402.941 229.7 409.388C226.562 411.181 224.3 413.273 222.891 415.535L221.205 413.337L221.183 418.374C221.055 422.729 223.852 427.105 229.572 430.456C240.821 437.03 259.115 437.094 270.428 430.648C276.084 427.425 278.923 423.156 278.945 418.887L279.009 413.593Z" fill="#F4A856"/>
<path d="M279.02 413.587C279.061 404.38 266.164 396.858 250.214 396.787C234.264 396.715 221.3 404.121 221.259 413.328C221.217 422.535 234.114 430.057 250.064 430.129C266.015 430.2 278.979 422.794 279.02 413.587Z" fill="#FCCC6B"/>
<path d="M270.513 425.354C259.2 431.822 240.907 431.737 229.658 425.162C218.408 418.588 218.451 408.043 229.764 401.575C241.078 395.108 259.371 395.193 270.62 401.767C281.869 408.321 281.826 418.887 270.513 425.354Z" fill="url(#paint21_radial_1_1037)"/>
<path d="M250.256 427.702C243.938 427.702 237.62 426.294 232.817 423.497C228.163 420.786 225.623 417.179 225.645 413.358C225.666 409.537 228.249 405.951 232.924 403.283C242.465 397.818 257.962 397.904 267.461 403.432C272.114 406.143 274.654 409.751 274.633 413.572C274.612 417.392 272.029 420.978 267.354 423.647C262.637 426.358 256.446 427.702 250.256 427.702ZM250 399.697C243.895 399.697 237.812 401.02 233.137 403.689C228.633 406.271 226.136 409.687 226.114 413.337C226.093 416.987 228.569 420.445 233.052 423.049C242.422 428.513 257.684 428.578 267.098 423.198C271.602 420.616 274.099 417.2 274.121 413.55C274.142 409.9 271.666 406.442 267.183 403.838C262.466 401.084 256.233 399.697 250 399.697Z" fill="#F4A856"/>
<path d="M267.226 423.433C257.727 428.855 242.38 428.791 232.924 423.284C223.467 417.777 223.51 408.897 233.009 403.475C242.508 398.053 257.855 398.117 267.311 403.625C276.767 409.153 276.725 418.011 267.226 423.433Z" fill="url(#paint22_radial_1_1037)"/>
<path d="M233.009 404.649C242.508 399.227 257.855 399.291 267.311 404.799C271.773 407.403 274.121 410.754 274.355 414.148C274.633 410.37 272.306 406.549 267.333 403.625C257.877 398.117 242.529 398.053 233.03 403.475C228.035 406.335 225.645 410.156 225.901 413.934C226.157 410.54 228.526 407.211 233.009 404.649Z" fill="#F4A856"/>
<path d="M270.513 424.244C259.2 430.712 240.907 430.627 229.658 424.052C224.279 420.914 221.482 416.859 221.269 412.76C220.991 417.2 223.788 421.726 229.658 425.141C240.907 431.715 259.2 431.779 270.513 425.333C276.405 421.96 279.244 417.478 279.009 413.017C278.753 417.115 275.914 421.149 270.513 424.244Z" fill="#FCE586"/>
<path d="M298.988 418.182L296.939 420.167C296.064 417.606 294.292 415.002 291.539 412.526C281.869 403.795 263.981 399.974 251.58 403.987C248.143 405.097 245.496 406.698 243.66 408.598L242.465 406.101L241.419 411.031H241.44C240.416 415.258 242.252 420.125 247.182 424.565C256.852 433.295 274.74 437.116 287.141 433.103C293.332 431.096 296.982 427.51 297.878 423.348L298.988 418.182Z" fill="#F4A856"/>
<path d="M288.23 427.958C275.828 431.971 257.941 428.151 248.271 419.42C238.601 410.69 240.8 400.359 253.202 396.346C265.604 392.333 283.491 396.153 293.161 404.884C302.852 413.614 300.632 423.946 288.23 427.958Z" fill="#FCCC6B"/>
<path d="M288.23 427.958C275.828 431.971 257.941 428.151 248.271 419.42C238.601 410.69 240.8 400.359 253.202 396.346C265.604 392.333 283.491 396.153 293.161 404.884C302.852 413.614 300.632 423.946 288.23 427.958Z" fill="url(#paint23_radial_1_1037)"/>
<path d="M267.93 426.101C261.74 424.799 255.849 422.131 251.708 418.417C247.716 414.81 245.966 410.754 246.756 407.018C247.567 403.262 250.811 400.295 255.934 398.63C266.393 395.236 281.549 398.48 289.724 405.844C293.716 409.452 295.488 413.508 294.676 417.243C293.865 421 290.621 423.967 285.498 425.632C280.332 427.318 273.993 427.382 267.93 426.101ZM273.416 398.651C267.439 397.392 261.207 397.456 256.105 399.099C251.153 400.7 248.015 403.539 247.246 407.104C246.478 410.669 248.186 414.553 252.049 418.033C260.097 425.29 275.038 428.492 285.348 425.162C290.301 423.561 293.438 420.722 294.207 417.136C294.975 413.572 293.268 409.687 289.404 406.207C285.348 402.557 279.521 399.932 273.416 398.651Z" fill="#F4A856"/>
<path d="M285.434 425.418C275.038 428.791 260.011 425.568 251.9 418.246C243.788 410.925 245.624 402.258 256.041 398.886C266.436 395.513 281.463 398.736 289.575 406.058C297.686 413.379 295.829 422.046 285.434 425.418Z" fill="url(#paint24_radial_1_1037)"/>
<path d="M255.785 400.017C266.18 396.644 281.207 399.868 289.319 407.189C293.161 410.647 294.762 414.425 294.292 417.777C295.338 414.148 293.844 409.9 289.553 406.037C281.442 398.715 266.415 395.492 256.02 398.864C250.534 400.636 247.439 403.881 246.905 407.637C247.865 404.393 250.854 401.597 255.785 400.017Z" fill="#F4A856"/>
<path d="M288.465 426.87C276.063 430.883 258.175 427.062 248.506 418.332C243.874 414.148 241.974 409.623 242.614 405.567C241.44 409.857 243.233 414.852 248.292 419.399C257.962 428.129 275.85 431.95 288.251 427.937C294.719 425.845 298.391 422.024 299.095 417.627C297.985 421.576 294.399 424.949 288.465 426.87Z" fill="#FCE586"/>
<path d="M254.931 296.597L252.391 297.878C252.348 295.189 251.43 292.158 249.573 288.956C243.02 277.707 227.139 268.613 214.097 268.677C210.489 268.699 207.48 269.403 205.153 270.684L204.769 267.93L202.271 272.306H202.293C200.03 276.02 200.307 281.229 203.659 286.949C210.212 298.198 226.093 307.292 239.135 307.228C245.646 307.206 250.213 304.901 252.327 301.187L254.931 296.597Z" fill="#F4A856"/>
<path d="M254.935 296.588C259.504 288.594 251.982 275.697 238.134 267.781C224.286 259.865 209.356 259.927 204.786 267.921C200.217 275.915 207.739 288.812 221.587 296.728C235.435 304.644 250.365 304.581 254.935 296.588Z" fill="#FCCC6B"/>
<path d="M241.739 302.638C228.718 302.702 212.837 293.609 206.263 282.36C199.71 271.111 204.939 261.932 217.96 261.889C230.981 261.825 246.862 270.919 253.437 282.168C260.011 293.417 254.76 302.574 241.739 302.638Z" fill="url(#paint25_radial_1_1037)"/>
<path d="M222.955 294.719C217.448 291.603 212.645 287.269 209.849 282.467C207.138 277.813 206.69 273.416 208.59 270.108C210.489 266.778 214.502 264.942 219.881 264.921C230.874 264.878 244.322 272.562 249.872 282.061C252.583 286.714 253.031 291.09 251.131 294.42C249.232 297.75 245.219 299.586 239.84 299.607C234.396 299.629 228.334 297.771 222.955 294.719ZM236.51 270.236C231.195 267.226 225.239 265.39 219.881 265.411C214.673 265.433 210.831 267.183 209.016 270.364C207.202 273.523 207.65 277.749 210.276 282.232C215.74 291.603 228.996 299.18 239.84 299.138C245.048 299.116 248.89 297.366 250.704 294.185C252.519 291.026 252.071 286.8 249.445 282.317C246.692 277.578 241.931 273.288 236.51 270.236Z" fill="#F4A856"/>
<path d="M239.84 299.372C228.911 299.415 215.57 291.795 210.062 282.36C204.555 272.904 208.952 265.219 219.881 265.177C230.81 265.134 244.151 272.754 249.659 282.189C255.166 291.624 250.769 299.33 239.84 299.372Z" fill="url(#paint26_radial_1_1037)"/>
<path d="M219.305 266.159C230.234 266.116 243.575 273.736 249.082 283.171C251.686 287.632 252.071 291.709 250.598 294.783C252.711 291.645 252.562 287.141 249.659 282.168C244.151 272.712 230.81 265.091 219.881 265.155C214.118 265.177 210.169 267.333 208.526 270.748C210.425 267.909 214.139 266.18 219.305 266.159Z" fill="#F4A856"/>
<path d="M242.273 301.678C229.252 301.742 213.371 292.649 206.797 281.399C203.659 276.02 203.232 271.111 205.046 267.439C202.613 271.175 202.826 276.469 206.242 282.339C212.795 293.588 228.676 302.681 241.718 302.617C248.506 302.596 253.181 300.077 255.166 296.085C252.967 299.543 248.506 301.656 242.273 301.678Z" fill="#FCE586"/>
<path d="M249.36 347.144L249.146 349.983C246.798 348.638 243.746 347.87 240.053 347.806C227.032 347.635 211.066 356.6 204.427 367.785C202.591 370.88 201.652 373.826 201.545 376.473L199.005 375.384L201.481 379.781V379.76C203.509 383.602 208.099 386.036 214.737 386.121C227.758 386.292 243.724 377.327 250.363 366.142C253.693 360.549 254.056 355.447 251.964 351.712L249.36 347.144Z" fill="#F4A856"/>
<path d="M247.737 361.574C241.078 372.78 225.132 381.724 212.112 381.553C199.091 381.382 193.925 372.182 200.564 360.976C207.223 349.769 223.169 340.826 236.189 340.996C249.232 341.146 254.397 350.367 247.737 361.574Z" fill="#FCCC6B"/>
<path d="M247.737 361.574C241.078 372.78 225.132 381.724 212.112 381.553C199.091 381.382 193.925 372.182 200.564 360.976C207.223 349.769 223.169 340.826 236.189 340.996C249.232 341.146 254.397 350.367 247.737 361.574Z" fill="url(#paint27_radial_1_1037)"/>
<path d="M231.28 373.591C225.773 376.708 219.583 378.607 214.033 378.543C208.654 378.479 204.662 376.601 202.784 373.25C200.905 369.898 201.396 365.523 204.15 360.891C209.764 351.434 223.275 343.857 234.29 343.985C239.669 344.049 243.66 345.927 245.539 349.279C247.417 352.63 246.926 357.006 244.173 361.638C241.398 366.312 236.68 370.539 231.28 373.591ZM217.256 349.364C211.941 352.374 207.287 356.536 204.555 361.147C201.908 365.608 201.417 369.834 203.21 373.015C205.003 376.195 208.846 377.988 214.033 378.052C224.876 378.181 238.196 370.71 243.746 361.403C246.393 356.942 246.884 352.715 245.091 349.535C243.298 346.354 239.455 344.561 234.268 344.497C228.804 344.412 222.678 346.29 217.256 349.364Z" fill="#F4A856"/>
<path d="M243.959 361.51C238.367 370.902 224.983 378.415 214.033 378.287C203.104 378.159 198.749 370.411 204.342 361.019C209.934 351.627 223.318 344.113 234.268 344.241C245.219 344.39 249.552 352.117 243.959 361.51Z" fill="url(#paint28_radial_1_1037)"/>
<path d="M204.918 362.043C210.511 352.651 223.894 345.137 234.845 345.266C240.01 345.33 243.703 347.101 245.581 349.94C243.981 346.525 240.053 344.326 234.29 344.262C223.361 344.134 209.956 351.648 204.363 361.04C201.417 365.992 201.225 370.475 203.317 373.655C201.866 370.56 202.293 366.483 204.918 362.043Z" fill="#F4A856"/>
<path d="M247.204 360.613C240.544 371.82 224.599 380.763 211.578 380.593C205.345 380.507 200.926 378.351 198.706 374.915C200.67 378.928 205.302 381.468 212.111 381.553C225.132 381.724 241.099 372.759 247.737 361.574C251.217 355.725 251.451 350.431 249.061 346.674C250.854 350.346 250.384 355.255 247.204 360.613Z" fill="#FCE586"/>
<path d="M78.3171 347.272C77.3352 347.272 76.3533 347.016 75.4781 346.504L0.68306 303.343C0.256147 303.087 0 302.66 0 302.169C0 301.678 0.256147 301.229 0.68306 300.973L66.8332 262.786L67.4949 263.939L1.34477 302.126L76.1398 345.372C77.4846 346.141 79.1496 346.141 80.4943 345.372L125.107 319.715C126.878 318.69 129.056 318.712 130.806 319.736L149.078 330.409L148.416 331.562L130.144 320.889C128.799 320.099 127.135 320.099 125.768 320.867L81.1561 346.546C80.2809 347.037 79.299 347.272 78.3171 347.272Z" fill="#C86CFD"/>
<path d="M412.547 283.619L342.918 208.846L273.288 203.21C273.288 203.21 262.103 297.601 342.918 397.712C423.753 390.924 412.547 283.619 412.547 283.619Z" fill="url(#paint29_linear_1_1037)"/>
<path d="M273.309 203.21L257.642 212.261L327.271 217.896L342.939 208.846L273.309 203.21Z" fill="url(#paint30_linear_1_1037)"/>
<path d="M396.901 292.67L327.271 217.896L298.647 214.993L257.642 212.261C257.642 212.261 246.457 306.651 327.271 406.762C408.086 399.974 396.901 292.67 396.901 292.67Z" fill="url(#paint31_linear_1_1037)"/>
<path d="M396.901 292.67L327.271 217.896L257.642 212.261C259.606 211.13 259.606 211.13 259.606 211.13L330.153 216.829L399.782 291.603C399.782 291.603 409.132 381.297 348.937 401.874C405.93 379.461 396.901 292.67 396.901 292.67Z" fill="white"/>
<path opacity="0.2" d="M388.448 293.823L325.841 226.605L300.098 224.001L263.234 221.546C263.234 221.546 253.18 306.416 325.841 396.431C398.502 390.305 388.448 293.823 388.448 293.823Z" fill="white"/>
</g>
<defs>
<linearGradient id="paint0_linear_1_1037" x1="93.4746" y1="196.821" x2="34.1098" y2="150.957" gradientUnits="userSpaceOnUse">
<stop stop-color="#C86CFD"/>
<stop offset="1" stop-color="#A200FF"/>
</linearGradient>
<linearGradient id="paint1_linear_1_1037" x1="93.7128" y1="218.698" x2="126.929" y2="218.698" gradientUnits="userSpaceOnUse">
<stop stop-color="#BD51FC"/>
<stop offset="1" stop-color="#982CD6"/>
</linearGradient>
<linearGradient id="paint2_linear_1_1037" x1="51.9116" y1="216.222" x2="93.7128" y2="216.222" gradientUnits="userSpaceOnUse">
<stop stop-color="#D58BFF"/>
<stop offset="1" stop-color="#C86CFD"/>
</linearGradient>
<linearGradient id="paint3_linear_1_1037" x1="242.327" y1="221.464" x2="670.277" y2="221.464" gradientUnits="userSpaceOnUse">
<stop stop-color="#1CA0C2"/>
<stop offset="0.522" stop-color="#1CA0C2"/>
<stop offset="1" stop-color="#1CA0C2"/>
</linearGradient>
<linearGradient id="paint4_linear_1_1037" x1="207.354" y1="82.8619" x2="496.497" y2="230.896" gradientUnits="userSpaceOnUse">
<stop stop-color="#59BDEF"/>
<stop offset="1" stop-color="#7BDAFF"/>
</linearGradient>
<linearGradient id="paint5_linear_1_1037" x1="318.114" y1="13.5118" x2="318.114" y2="435.75" gradientUnits="userSpaceOnUse">
<stop stop-color="#1CA0C2"/>
<stop offset="1" stop-color="#C86CFD"/>
</linearGradient>
<radialGradient id="paint6_radial_1_1037" cx="0" cy="0" r="1" gradientUnits="userSpaceOnUse" gradientTransform="translate(207.853 224.037) rotate(-51.5165) scale(41.2571 41.2571)">
<stop stop-color="#FCE586"/>
<stop offset="0.2273" stop-color="#FCDB7B"/>
<stop offset="0.6161" stop-color="#FCD06F"/>
<stop offset="1" stop-color="#FCCC6B"/>
</radialGradient>
<radialGradient id="paint7_radial_1_1037" cx="0" cy="0" r="1" gradientUnits="userSpaceOnUse" gradientTransform="translate(249.21 231.356) rotate(-51.5165) scale(98.1431 98.1431)">
<stop stop-color="#FCE586"/>
<stop offset="0.2273" stop-color="#FCDB7B"/>
<stop offset="0.6161" stop-color="#FCD06F"/>
<stop offset="1" stop-color="#FCCC6B"/>
</radialGradient>
<linearGradient id="paint8_linear_1_1037" x1="148.1" y1="147.209" x2="325.123" y2="147.209" gradientUnits="userSpaceOnUse">
<stop stop-color="#C86CFD"/>
<stop offset="1" stop-color="#1CA0C2"/>
</linearGradient>
<radialGradient id="paint9_radial_1_1037" cx="0" cy="0" r="1" gradientUnits="userSpaceOnUse" gradientTransform="translate(209.391 393.305) rotate(-17.0741) scale(41.2568 41.2568)">
<stop stop-color="#FCE586"/>
<stop offset="0.2273" stop-color="#FCDB7B"/>
<stop offset="0.6161" stop-color="#FCD06F"/>
<stop offset="1" stop-color="#FCCC6B"/>
</radialGradient>
<radialGradient id="paint10_radial_1_1037" cx="0" cy="0" r="1" gradientUnits="userSpaceOnUse" gradientTransform="translate(239.358 422.731) rotate(-17.0741) scale(98.1435 98.1435)">
<stop stop-color="#FCE586"/>
<stop offset="0.2273" stop-color="#FCDB7B"/>
<stop offset="0.6161" stop-color="#FCD06F"/>
<stop offset="1" stop-color="#FCCC6B"/>
</radialGradient>
<radialGradient id="paint11_radial_1_1037" cx="0" cy="0" r="1" gradientUnits="userSpaceOnUse" gradientTransform="translate(214.35 386.227) rotate(-17.0741) scale(41.257 41.257)">
<stop stop-color="#FCE586"/>
<stop offset="0.2273" stop-color="#FCDB7B"/>
<stop offset="0.6161" stop-color="#FCD06F"/>
<stop offset="1" stop-color="#FCCC6B"/>
</radialGradient>
<radialGradient id="paint12_radial_1_1037" cx="0" cy="0" r="1" gradientUnits="userSpaceOnUse" gradientTransform="translate(244.317 415.653) rotate(-17.0741) scale(98.1435 98.1435)">
<stop stop-color="#FCE586"/>
<stop offset="0.2273" stop-color="#FCDB7B"/>
<stop offset="0.6161" stop-color="#FCD06F"/>
<stop offset="1" stop-color="#FCCC6B"/>
</radialGradient>
<radialGradient id="paint13_radial_1_1037" cx="0" cy="0" r="1" gradientUnits="userSpaceOnUse" gradientTransform="translate(252.421 421.407) rotate(-17.0741) scale(41.2568 41.2568)">
<stop stop-color="#FCE586"/>
<stop offset="0.2273" stop-color="#FCDB7B"/>
<stop offset="0.6161" stop-color="#FCD06F"/>
<stop offset="1" stop-color="#FCCC6B"/>
</radialGradient>
<radialGradient id="paint14_radial_1_1037" cx="0" cy="0" r="1" gradientUnits="userSpaceOnUse" gradientTransform="translate(282.388 450.833) rotate(-17.0741) scale(98.1435 98.1435)">
<stop stop-color="#FCE586"/>
<stop offset="0.2273" stop-color="#FCDB7B"/>
<stop offset="0.6161" stop-color="#FCD06F"/>
<stop offset="1" stop-color="#FCCC6B"/>
</radialGradient>
<radialGradient id="paint15_radial_1_1037" cx="0" cy="0" r="1" gradientUnits="userSpaceOnUse" gradientTransform="translate(194.648 431.427) rotate(-17.0741) scale(41.2568 41.2568)">
<stop stop-color="#FCE586"/>
<stop offset="0.2273" stop-color="#FCDB7B"/>
<stop offset="0.6161" stop-color="#FCD06F"/>
<stop offset="1" stop-color="#FCCC6B"/>
</radialGradient>
<radialGradient id="paint16_radial_1_1037" cx="0" cy="0" r="1" gradientUnits="userSpaceOnUse" gradientTransform="translate(224.616 460.853) rotate(-17.0741) scale(98.1435 98.1435)">
<stop stop-color="#FCE586"/>
<stop offset="0.2273" stop-color="#FCDB7B"/>
<stop offset="0.6161" stop-color="#FCD06F"/>
<stop offset="1" stop-color="#FCCC6B"/>
</radialGradient>
<radialGradient id="paint17_radial_1_1037" cx="0" cy="0" r="1" gradientUnits="userSpaceOnUse" gradientTransform="translate(221.981 420.804) rotate(-17.0741) scale(41.2568 41.2568)">
<stop stop-color="#FCE586"/>
<stop offset="0.2273" stop-color="#FCDB7B"/>
<stop offset="0.6161" stop-color="#FCD06F"/>
<stop offset="1" stop-color="#FCCC6B"/>
</radialGradient>
<radialGradient id="paint18_radial_1_1037" cx="0" cy="0" r="1" gradientUnits="userSpaceOnUse" gradientTransform="translate(251.949 450.23) rotate(-17.0741) scale(98.1437 98.1437)">
<stop stop-color="#FCE586"/>
<stop offset="0.2273" stop-color="#FCDB7B"/>
<stop offset="0.6161" stop-color="#FCD06F"/>
<stop offset="1" stop-color="#FCCC6B"/>
</radialGradient>
<radialGradient id="paint19_radial_1_1037" cx="0" cy="0" r="1" gradientUnits="userSpaceOnUse" gradientTransform="translate(229.453 415.03) rotate(-17.0741) scale(41.2568 41.2568)">
<stop stop-color="#FCE586"/>
<stop offset="0.2273" stop-color="#FCDB7B"/>
<stop offset="0.6161" stop-color="#FCD06F"/>
<stop offset="1" stop-color="#FCCC6B"/>
</radialGradient>
<radialGradient id="paint20_radial_1_1037" cx="0" cy="0" r="1" gradientUnits="userSpaceOnUse" gradientTransform="translate(259.42 444.456) rotate(-17.0741) scale(98.1437 98.1437)">
<stop stop-color="#FCE586"/>
<stop offset="0.2273" stop-color="#FCDB7B"/>
<stop offset="0.6161" stop-color="#FCD06F"/>
<stop offset="1" stop-color="#FCCC6B"/>
</radialGradient>
<radialGradient id="paint21_radial_1_1037" cx="0" cy="0" r="1" gradientUnits="userSpaceOnUse" gradientTransform="translate(233.411 403.924) rotate(-17.0741) scale(41.2568 41.2568)">
<stop stop-color="#FCE586"/>
<stop offset="0.2273" stop-color="#FCDB7B"/>
<stop offset="0.6161" stop-color="#FCD06F"/>
<stop offset="1" stop-color="#FCCC6B"/>
</radialGradient>
<radialGradient id="paint22_radial_1_1037" cx="0" cy="0" r="1" gradientUnits="userSpaceOnUse" gradientTransform="translate(263.378 433.35) rotate(-17.0741) scale(98.1435 98.1435)">
<stop stop-color="#FCE586"/>
<stop offset="0.2273" stop-color="#FCDB7B"/>
<stop offset="0.6161" stop-color="#FCD06F"/>
<stop offset="1" stop-color="#FCCC6B"/>
</radialGradient>
<radialGradient id="paint23_radial_1_1037" cx="0" cy="0" r="1" gradientUnits="userSpaceOnUse" gradientTransform="translate(256.317 399.389) rotate(-5.26135) scale(41.2567 41.2568)">
<stop stop-color="#FCE586"/>
<stop offset="0.2273" stop-color="#FCDB7B"/>
<stop offset="0.6161" stop-color="#FCD06F"/>
<stop offset="1" stop-color="#FCCC6B"/>
</radialGradient>
<radialGradient id="paint24_radial_1_1037" cx="0" cy="0" r="1" gradientUnits="userSpaceOnUse" gradientTransform="translate(279.625 434.326) rotate(-5.26135) scale(98.1436 98.1437)">
<stop stop-color="#FCE586"/>
<stop offset="0.2273" stop-color="#FCDB7B"/>
<stop offset="0.6161" stop-color="#FCD06F"/>
<stop offset="1" stop-color="#FCCC6B"/>
</radialGradient>
<radialGradient id="paint25_radial_1_1037" cx="0" cy="0" r="1" gradientUnits="userSpaceOnUse" gradientTransform="translate(219.997 265.73) rotate(12.4213) scale(41.257 41.2569)">
<stop stop-color="#FCE586"/>
<stop offset="0.2273" stop-color="#FCDB7B"/>
<stop offset="0.6161" stop-color="#FCD06F"/>
<stop offset="1" stop-color="#FCCC6B"/>
</radialGradient>
<radialGradient id="paint26_radial_1_1037" cx="0" cy="0" r="1" gradientUnits="userSpaceOnUse" gradientTransform="translate(231.592 306.097) rotate(12.4213) scale(98.1433 98.1433)">
<stop stop-color="#FCE586"/>
<stop offset="0.2273" stop-color="#FCDB7B"/>
<stop offset="0.6161" stop-color="#FCD06F"/>
<stop offset="1" stop-color="#FCCC6B"/>
</radialGradient>
<radialGradient id="paint27_radial_1_1037" cx="0" cy="0" r="1" gradientUnits="userSpaceOnUse" gradientTransform="translate(204.912 361.218) rotate(-46.6167) scale(41.257)">
<stop stop-color="#FCE586"/>
<stop offset="0.2273" stop-color="#FCDB7B"/>
<stop offset="0.6161" stop-color="#FCD06F"/>
<stop offset="1" stop-color="#FCCC6B"/>
</radialGradient>
<radialGradient id="paint28_radial_1_1037" cx="0" cy="0" r="1" gradientUnits="userSpaceOnUse" gradientTransform="translate(245.493 372.043) rotate(-46.6167) scale(98.1431)">
<stop stop-color="#FCE586"/>
<stop offset="0.2273" stop-color="#FCDB7B"/>
<stop offset="0.6161" stop-color="#FCD06F"/>
<stop offset="1" stop-color="#FCCC6B"/>
</radialGradient>
<linearGradient id="paint29_linear_1_1037" x1="322.788" y1="282.322" x2="532.122" y2="346.558" gradientUnits="userSpaceOnUse">
<stop stop-color="#2573BA"/>
<stop offset="0.907" stop-color="#0364AE"/>
<stop offset="1" stop-color="#0063AD"/>
</linearGradient>
<linearGradient id="paint30_linear_1_1037" x1="342.929" y1="210.557" x2="257.635" y2="210.557" gradientUnits="userSpaceOnUse">
<stop stop-color="#0063AD"/>
<stop offset="1" stop-color="#2573BA"/>
</linearGradient>
<linearGradient id="paint31_linear_1_1037" x1="257.109" y1="271.825" x2="397.416" y2="271.825" gradientUnits="userSpaceOnUse">
<stop stop-color="#1CA0C2"/>
<stop offset="1" stop-color="#C86CFD"/>
</linearGradient>
<clipPath id="bank-svg">
<rect width="502.391" height="500" fill="white"/>
</clipPath>
</defs>
</svg>
