<svg width="108" height="120" viewBox="0 0 108 120" fill="none" xmlns="http://www.w3.org/2000/svg">
<g id="bell-svg">
<path id="Vector" d="M51.3176 120C58.9802 120 65.3416 114.362 66.3532 106.989L36.281 106.988C37.2925 114.362 43.6542 120 51.3166 120L51.3176 120Z" fill="#FFA401"/>
<path id="Vector_2" d="M96.1415 89.6378C95.5636 89.2041 94.9847 88.7705 94.4069 88.1916H35.4192C33.8288 88.1916 32.5279 86.8906 32.5279 85.3003C32.5279 83.7099 33.8289 82.409 35.4192 82.409H89.925C88.4788 79.5177 87.1777 75.7579 86.5999 70.8425H85.299C69.6846 70.8425 57.1063 58.2645 57.1063 42.6499C57.1063 32.9632 62.0217 24.4334 69.3959 19.3729C67.0825 17.9267 64.7689 16.771 62.6008 15.9028C62.8902 14.8902 62.8902 13.8787 62.8902 13.0115C62.8902 5.78259 57.1076 0 49.8788 0C42.6499 0 36.8673 5.78259 36.8673 13.0115C36.8673 14.024 37.0115 15.0355 37.1567 15.9028C26.8912 19.8066 14.3135 29.2039 14.3135 50.746C14.3135 76.6254 8.53086 86.0229 3.61444 89.4928C1.44619 90.939 0 93.3967 0 96.1439C0 100.626 3.61444 104.096 7.95203 104.096H91.6625C96.1442 104.096 99.6145 100.481 99.6145 96.1439C99.6135 93.542 98.3126 91.0842 96.1444 89.6382L96.1415 89.6378ZM49.8766 5.78274C53.9248 5.78274 57.1055 8.96345 57.1055 13.0116C57.1055 13.4453 57.1055 13.8789 56.9613 14.1684C50.745 12.578 45.2508 13.5905 42.6479 14.1684C42.6479 13.7347 42.5037 13.4453 42.5037 13.0116C42.6479 8.96345 45.8287 5.78274 49.8769 5.78274H49.8766ZM25.8775 87.3245C25.2986 87.9034 24.5755 88.1919 23.8535 88.1919H23.2756C23.1314 88.1919 22.842 88.0476 22.6977 88.0476C22.5535 88.0476 22.4083 87.9034 22.2641 87.7582C22.1199 87.614 21.9746 87.4688 21.8304 87.4688C21.2505 86.7467 20.9611 86.0236 20.9611 85.3005V84.7226C20.9611 84.5784 21.1053 84.289 21.1053 84.1448C21.1053 84.0005 21.2495 83.8553 21.3948 83.7111C21.539 83.5669 21.539 83.4217 21.6842 83.2775C21.8284 83.1332 21.9736 82.988 22.1179 82.988C22.2621 82.8438 22.4073 82.8438 22.5515 82.6986C22.6957 82.6986 22.8409 82.5544 23.1294 82.5544C23.9967 82.4101 25.0092 82.6986 25.7313 83.2775C25.8755 83.4217 26.0207 83.5669 26.0207 83.7111C26.1649 83.8553 26.1649 84.0006 26.3101 84.1448C26.4544 84.289 26.4544 84.4342 26.4544 84.7226V85.3005C26.7448 86.0236 26.4554 86.7467 25.8775 87.3245H25.8775Z" fill="#FFA401"/>
<path id="Vector_3" d="M85.2915 20.2422C77.1954 20.2422 70.1106 24.5798 66.2067 31.0855C66.0625 31.2297 66.0625 31.3749 65.9173 31.5191C65.7731 31.8086 65.4836 32.2422 65.3394 32.5317C65.1952 32.8211 65.05 33.1096 64.9057 33.2548C64.7615 33.6884 64.4721 34.1221 64.3279 34.5557C64.1837 34.8452 64.0384 35.2788 63.8942 35.7125C63.75 36.0019 63.75 36.1462 63.6048 36.4356C63.4606 37.0135 63.3153 37.4481 63.1711 38.026C63.1711 38.1702 63.1711 38.3154 63.0269 38.4597C62.8827 39.0375 62.8827 39.6164 62.7375 40.1943V40.7721C62.7375 41.4952 62.5933 42.0731 62.5933 42.7962C62.8817 55.0858 72.8578 65.0617 85.2914 65.0617C97.7251 65.0617 107.7 55.0855 107.7 42.6519C107.7 30.2182 97.7251 20.2421 85.2914 20.2421L85.2915 20.2422Z" fill="#C86CFD"/>
</g>
</svg>
