<svg width="46" height="40" viewBox="0 0 46 40" fill="none" xmlns="http://www.w3.org/2000/svg">
<path id="Vector" d="M31.8795 0.0383088C32.567 -0.0804381 33.2813 0.0793792 33.7723 0.48294C41.2811 5.72655 45.3702 12.6514 45.3702 19.919C45.3702 27.3385 41.2811 34.2758 33.7723 39.5167C33.3438 39.8739 32.7277 40.0435 32.1117 39.9899C31.4867 39.9364 30.9063 39.6685 30.4688 39.231L14.0943 22.919C13.5943 22.4279 13.3175 21.7583 13.2372 21.0529C13.2372 20.3565 13.5943 19.6869 14.0853 19.1869C14.5853 18.6959 15.255 18.4101 15.9514 18.4101C16.6567 18.4101 17.3263 18.6869 17.8174 19.178L32.5581 33.8562C37.433 29.8652 40.0847 24.9993 40.0847 19.919C40.0847 14.4192 36.7901 9.00861 30.8081 4.79979C30.2367 4.39623 29.8439 3.78107 29.7278 3.09091C29.6028 2.40075 29.7635 1.69094 30.1742 1.11864C30.576 0.546331 31.192 0.157949 31.8795 0.0383088ZM13.4871 39.9632C12.7997 40.0792 12.0943 39.9185 11.514 39.5167C4.09186 34.2758 0 27.3385 0 19.919C0 12.6514 4.09186 5.72655 11.514 0.48294C12.0229 0.124914 12.639 -0.0420463 13.2639 0.0106309C13.88 0.0633081 14.4603 0.332051 14.8978 0.770433L31.2724 17.0798C31.7724 17.5709 32.0492 18.2405 32.0492 18.9458C32.0581 19.5619 31.7813 20.3119 31.2813 20.8119C30.7903 21.3029 30.1206 21.5886 29.4153 21.5886C28.7189 21.5886 27.9689 21.3119 27.5493 20.8208L12.8086 6.13368C7.93372 10.1693 5.28468 14.9906 5.28468 19.919C5.28468 25.5796 8.57656 30.9902 14.4871 35.1954C15.1389 35.6061 15.5228 36.2133 15.6478 36.9097C15.7639 37.5971 15.6032 38.3114 15.2014 38.8828C14.7996 39.4542 14.1836 39.8382 13.4871 39.9632Z" fill="#C86CFD"/>
</svg>
