<svg width="201" height="40" viewBox="0 0 201 40" fill="none" xmlns="http://www.w3.org/2000/svg">
<path d="M57.6896 27.5895C57.6896 28.5791 57.4856 29.3395 57.0779 29.8707C56.6808 30.4021 56.0169 30.6677 55.0865 30.6677C54.2083 30.6677 53.5864 30.4021 53.2204 29.8707C52.865 29.3395 52.6873 28.5791 52.6873 27.5895V11.0735C52.6873 10.0838 52.865 9.32341 53.2204 8.79214C53.5864 8.26087 54.2083 7.99524 55.0865 7.99524C56.0169 7.99524 56.6808 8.26087 57.0779 8.79214C57.4856 9.32341 57.6896 10.0838 57.6896 11.0735V27.5895Z" fill="#5F5F5F"/>
<path d="M59.1998 22.7924C59.1998 21.6881 59.3775 20.6464 59.733 19.6672C60.0989 18.6776 60.6424 17.813 61.3638 17.0734C62.0956 16.3338 63.0051 15.7453 64.0923 15.3078C65.19 14.8702 66.4758 14.6515 67.9498 14.6515C69.3611 14.6515 70.6104 14.8546 71.6976 15.2608C72.7848 15.6671 73.6995 16.2349 74.4416 16.9641C75.1839 17.6828 75.7484 18.5421 76.1353 19.5421C76.522 20.5318 76.7155 21.6151 76.7155 22.7924C76.7155 23.8861 76.5324 24.9226 76.1666 25.9018C75.8008 26.8705 75.2519 27.7248 74.5201 28.4644C73.7884 29.1935 72.8736 29.7768 71.776 30.2144C70.6782 30.6415 69.4029 30.855 67.9498 30.855C66.5176 30.855 65.2527 30.6519 64.1549 30.2456C63.0677 29.8289 62.1531 29.2612 61.4109 28.5424C60.6791 27.8133 60.125 26.9591 59.7487 25.9799C59.3827 24.9903 59.1998 23.9277 59.1998 22.7924ZM64.4216 22.7924C64.4216 23.4798 64.4842 24.1361 64.6098 24.7611C64.7351 25.3756 64.9338 25.9174 65.2056 26.3862C65.4878 26.8549 65.8538 27.2299 66.3033 27.5111C66.7529 27.782 67.3016 27.9174 67.9498 27.9174C68.5457 27.9174 69.0631 27.7925 69.5022 27.5424C69.9518 27.2925 70.3176 26.9434 70.5999 26.4955C70.8926 26.0476 71.1122 25.5111 71.2584 24.8862C71.4048 24.2507 71.478 23.5528 71.478 22.7924C71.478 22.1047 71.41 21.4537 71.2742 20.8391C71.1487 20.2142 70.9449 19.6672 70.6626 19.1984C70.3804 18.7193 70.0145 18.3442 69.5649 18.0734C69.1259 17.7922 68.5874 17.6516 67.9498 17.6516C67.3121 17.6516 66.7685 17.7869 66.3189 18.0578C65.8695 18.3286 65.5036 18.6984 65.2213 19.1672C64.9391 19.636 64.7351 20.1828 64.6098 20.8079C64.4842 21.4329 64.4216 22.0943 64.4216 22.7924Z" fill="#5F5F5F"/>
<path d="M89.5866 27.6519C89.3043 28.1727 88.9593 28.6154 88.5516 28.98C88.1545 29.3446 87.7101 29.6467 87.2189 29.8863C86.738 30.1154 86.2205 30.2873 85.6664 30.4019C85.1227 30.5061 84.5635 30.5582 83.9885 30.5582C83.0267 30.5582 82.1486 30.3863 81.3541 30.0425C80.5596 29.6987 79.8749 29.2039 79.3 28.5582C78.7354 27.9019 78.2964 27.0997 77.9827 26.1518C77.6691 25.2038 77.5122 24.1204 77.5122 22.9017C77.5122 21.7559 77.6586 20.6829 77.9514 19.6829C78.2441 18.6828 78.6674 17.8131 79.2215 17.0735C79.7861 16.3338 80.476 15.7505 81.2915 15.3234C82.1068 14.8963 83.0373 14.6827 84.0826 14.6827C85.2743 14.6827 86.3302 14.9119 87.2502 15.3702C88.1806 15.8286 88.9803 16.5787 89.6494 17.6203V17.2141C89.6494 16.4641 89.8532 15.9016 90.2609 15.5265C90.6791 15.1412 91.2541 14.9483 91.9859 14.9483C92.4249 14.9483 92.796 15.0213 93.0992 15.1672C93.4023 15.3026 93.6427 15.5109 93.8204 15.7922C93.9983 16.063 94.1236 16.4016 94.1968 16.8079C94.2805 17.2036 94.3222 17.6568 94.3222 18.1672V28.6363C94.3222 29.9071 94.1603 31.0425 93.8362 32.0425C93.5226 33.0425 93.0312 33.8864 92.3621 34.5739C91.6931 35.2614 90.8359 35.7822 89.7904 36.1365C88.7451 36.501 87.5011 36.6833 86.0585 36.6833C85.0444 36.6833 84.1454 36.6365 83.3612 36.5426C82.5877 36.4594 81.9186 36.3292 81.3541 36.1521C80.7897 35.9541 80.3611 35.7354 80.0683 35.4958C79.7861 35.2562 79.6449 34.9437 79.6449 34.5583C79.6449 34.3395 79.6762 34.1312 79.739 33.9332C79.8017 33.7354 79.8958 33.5583 80.0212 33.402C80.1571 33.2561 80.3296 33.1364 80.5388 33.0425C80.7582 32.9593 81.0248 32.9176 81.3384 32.9176C81.6729 32.9176 82.0075 32.9384 82.342 32.9801C82.687 33.0217 83.0425 33.0635 83.4083 33.1051C83.7846 33.1572 84.1767 33.204 84.5844 33.2457C85.0026 33.2873 85.452 33.3083 85.9329 33.3083C86.5079 33.3083 87.0202 33.2509 87.4698 33.1364C87.9192 33.0217 88.3007 32.8187 88.6144 32.5269C88.928 32.2353 89.1685 31.8446 89.3358 31.355C89.503 30.8758 89.5866 30.2613 89.5866 29.5113V27.6519ZM89.5866 22.7924C89.5866 22.0319 89.5291 21.3392 89.4142 20.7142C89.3097 20.0891 89.1266 19.5579 88.8653 19.1203C88.6039 18.6724 88.2538 18.3287 87.8147 18.0891C87.3756 17.8391 86.8268 17.7142 86.1682 17.7142C85.52 17.7142 84.9817 17.8443 84.5531 18.1047C84.1349 18.3651 83.8004 18.7246 83.5495 19.1829C83.2986 19.6413 83.1209 20.1777 83.0163 20.7924C82.9222 21.4069 82.8752 22.0632 82.8752 22.7611C82.8752 24.3549 83.1575 25.5529 83.722 26.3549C84.2864 27.1571 85.1071 27.5581 86.1838 27.5581C86.6856 27.5477 87.1405 27.4539 87.548 27.2768C87.9662 27.0893 88.327 26.8029 88.63 26.4174C88.9333 26.032 89.1685 25.5423 89.3358 24.9486C89.503 24.3549 89.5866 23.6362 89.5866 22.7924Z" fill="#5F5F5F"/>
<path d="M95.7747 22.7924C95.7747 21.6881 95.9524 20.6464 96.3078 19.6672C96.6737 18.6776 97.2173 17.813 97.9386 17.0734C98.6704 16.3338 99.5798 15.7453 100.667 15.3078C101.765 14.8702 103.051 14.6515 104.525 14.6515C105.936 14.6515 107.185 14.8546 108.272 15.2608C109.36 15.6671 110.274 16.2349 111.016 16.9641C111.759 17.6828 112.323 18.5421 112.71 19.5421C113.097 20.5318 113.29 21.6151 113.29 22.7924C113.29 23.8861 113.107 24.9226 112.741 25.9018C112.375 26.8705 111.827 27.7248 111.095 28.4644C110.363 29.1935 109.448 29.7768 108.351 30.2144C107.253 30.6415 105.978 30.855 104.525 30.855C103.092 30.855 101.827 30.6519 100.73 30.2456C99.6426 29.8289 98.7279 29.2612 97.9856 28.5424C97.2539 27.8133 96.6998 26.9591 96.3234 25.9799C95.9576 24.9903 95.7747 23.9277 95.7747 22.7924ZM100.996 22.7924C100.996 23.4798 101.059 24.1361 101.185 24.7611C101.31 25.3756 101.509 25.9174 101.78 26.3862C102.063 26.8549 102.429 27.2299 102.878 27.5111C103.328 27.782 103.876 27.9174 104.525 27.9174C105.121 27.9174 105.638 27.7925 106.077 27.5424C106.526 27.2925 106.892 26.9434 107.175 26.4955C107.467 26.0476 107.687 25.5111 107.833 24.8862C107.98 24.2507 108.053 23.5528 108.053 22.7924C108.053 22.1047 107.985 21.4537 107.849 20.8391C107.724 20.2142 107.52 19.6672 107.237 19.1984C106.955 18.7193 106.589 18.3442 106.14 18.0734C105.701 17.7922 105.162 17.6516 104.525 17.6516C103.887 17.6516 103.343 17.7869 102.894 18.0578C102.444 18.3286 102.078 18.6984 101.796 19.1672C101.514 19.636 101.31 20.1828 101.185 20.8079C101.059 21.4329 100.996 22.0943 100.996 22.7924Z" fill="#5F5F5F"/>
<path d="M120.013 9.38591C120.013 9.72968 119.934 10.037 119.778 10.3078C119.621 10.5682 119.417 10.7869 119.166 10.9641C118.915 11.1412 118.622 11.2765 118.288 11.3703C117.964 11.4536 117.629 11.4954 117.284 11.4954C116.918 11.4954 116.568 11.4484 116.234 11.3547C115.91 11.2609 115.622 11.1256 115.371 10.9484C115.12 10.7609 114.922 10.537 114.775 10.2766C114.629 10.0161 114.556 9.71926 114.556 9.38591C114.556 9.08383 114.624 8.80778 114.76 8.55777C114.906 8.29735 115.099 8.07339 115.34 7.88588C115.58 7.69838 115.868 7.55253 116.202 7.44837C116.537 7.3442 116.903 7.29211 117.3 7.29211C117.645 7.29211 117.98 7.339 118.304 7.43274C118.638 7.52649 118.931 7.66191 119.182 7.83901C119.433 8.01609 119.631 8.23484 119.778 8.49526C119.934 8.7557 120.013 9.05257 120.013 9.38591ZM119.778 27.5895C119.778 28.5791 119.574 29.3395 119.166 29.8708C118.769 30.4021 118.105 30.6677 117.175 30.6677C116.296 30.6677 115.674 30.4021 115.309 29.8708C114.953 29.3395 114.775 28.5791 114.775 27.5895V18.0267C114.775 17.0371 114.953 16.2767 115.309 15.7455C115.674 15.2142 116.296 14.9485 117.175 14.9485C118.105 14.9485 118.769 15.2142 119.166 15.7455C119.574 16.2767 119.778 17.0371 119.778 18.0267V27.5895Z" fill="#5F5F5F"/>
<path d="M126.98 22.7611C126.98 23.4591 127.032 24.11 127.137 24.7143C127.252 25.3185 127.44 25.8497 127.701 26.3081C127.973 26.756 128.329 27.1101 128.768 27.3705C129.217 27.6311 129.771 27.7612 130.43 27.7612C131.036 27.7612 131.543 27.6363 131.951 27.3863C132.369 27.1259 132.703 26.7716 132.955 26.3237C133.205 25.8653 133.383 25.3289 133.487 24.7143C133.602 24.0996 133.66 23.433 133.66 22.7143C133.66 22.1413 133.618 21.558 133.534 20.9642C133.451 20.36 133.295 19.8131 133.064 19.3235C132.834 18.8339 132.516 18.4328 132.108 18.1203C131.7 17.8079 131.167 17.6516 130.508 17.6516C129.85 17.6516 129.29 17.7558 128.83 17.9642C128.381 18.1724 128.015 18.4902 127.733 18.9172C127.461 19.3443 127.267 19.8809 127.152 20.5266C127.037 21.1621 126.98 21.9069 126.98 22.7611ZM126.964 18.0266C127.226 17.4745 127.56 16.9901 127.968 16.5735C128.375 16.1568 128.825 15.8078 129.316 15.5265C129.808 15.2453 130.32 15.0369 130.853 14.9015C131.397 14.7557 131.935 14.6827 132.468 14.6827C133.43 14.6827 134.298 14.8963 135.072 15.3234C135.845 15.7505 136.503 16.3338 137.047 17.0735C137.601 17.8027 138.025 18.6672 138.318 19.6673C138.61 20.6569 138.757 21.7195 138.757 22.8548C138.757 24.0319 138.599 25.1101 138.286 26.0893C137.983 27.0685 137.548 27.9123 136.984 28.6206C136.43 29.3186 135.761 29.8654 134.977 30.2613C134.203 30.6571 133.341 30.855 132.39 30.855C131.219 30.855 130.174 30.5842 129.254 30.0425C128.334 29.5009 127.571 28.7404 126.964 27.7612V33.3864C126.964 34.3759 126.76 35.1365 126.353 35.6677C125.955 36.1989 125.292 36.4646 124.361 36.4646C123.483 36.4646 122.861 36.1989 122.495 35.6677C122.14 35.1365 121.962 34.3759 121.962 33.3864V18.0266C121.962 17.0369 122.14 16.2765 122.495 15.7453C122.861 15.2141 123.483 14.9483 124.361 14.9483C125.292 14.9483 125.955 15.2141 126.353 15.7453C126.76 16.2765 126.964 17.0369 126.964 18.0266Z" fill="#5F5F5F"/>
<path d="M144.278 19.136C144.278 19.5421 144.456 19.8599 144.811 20.0891C145.167 20.3079 145.658 20.4902 146.285 20.636C146.881 20.7714 147.492 20.9016 148.12 21.0266C148.747 21.1517 149.359 21.2975 149.954 21.4642C150.55 21.6203 151.109 21.8079 151.632 22.0266C152.154 22.2454 152.615 22.5214 153.012 22.8548C153.409 23.1777 153.723 23.5736 153.953 24.0423C154.183 24.5007 154.298 25.0528 154.298 25.6986C154.298 26.5111 154.131 27.2351 153.796 27.8705C153.462 28.4956 152.987 29.0268 152.37 29.4644C151.764 29.9019 151.037 30.2404 150.19 30.48C149.343 30.7196 148.408 30.8446 147.383 30.855C146.411 30.855 145.474 30.7926 144.575 30.6675C143.677 30.553 142.877 30.3706 142.176 30.1206C141.487 29.8705 140.933 29.5633 140.514 29.1987C140.097 28.8237 139.888 28.3862 139.888 27.8862C139.888 27.4486 140.028 27.1101 140.311 26.8705C140.593 26.631 140.953 26.5111 141.393 26.5111C141.561 26.5111 141.759 26.5423 141.989 26.6049C142.219 26.6674 142.469 26.7455 142.741 26.8393C143.012 26.933 143.3 27.0371 143.604 27.1518C143.917 27.2559 144.241 27.3497 144.575 27.433C144.994 27.5477 145.422 27.6414 145.861 27.7144C146.311 27.7768 146.771 27.8081 147.242 27.8081C147.534 27.8081 147.822 27.782 148.104 27.73C148.386 27.6674 148.638 27.5789 148.857 27.4643C149.087 27.3393 149.275 27.183 149.422 26.9955C149.568 26.8081 149.656 26.5789 149.688 26.3081C149.719 26.2455 149.746 26.183 149.766 26.1204C149.787 26.058 149.798 25.9851 149.798 25.9018C149.798 25.61 149.661 25.3496 149.39 25.1204C149.129 24.8913 148.757 24.7089 148.276 24.5736C147.471 24.3861 146.703 24.2143 145.971 24.058C145.24 23.9017 144.561 23.7351 143.933 23.558C143.316 23.3809 142.751 23.1777 142.239 22.9485C141.737 22.7194 141.309 22.4381 140.953 22.1047C140.609 21.7714 140.336 21.3703 140.138 20.9016C139.949 20.4328 139.856 19.8651 139.856 19.1984C139.856 18.4797 140.018 17.839 140.341 17.2765C140.676 16.7035 141.152 16.2245 141.769 15.839C142.386 15.4535 143.133 15.1619 144.012 14.964C144.89 14.7556 145.883 14.6515 146.991 14.6515C148.976 14.6515 150.487 14.8911 151.523 15.3702C152.568 15.839 153.091 16.4535 153.091 17.2141C153.091 17.6412 152.949 17.9693 152.667 18.1984C152.384 18.4172 152.045 18.5265 151.649 18.5265C151.438 18.5265 151.219 18.4901 150.989 18.4172C150.769 18.3338 150.503 18.2453 150.19 18.1516C149.876 18.0474 149.499 17.9589 149.061 17.886C148.632 17.8026 148.098 17.7609 147.462 17.7609C146.98 17.7609 146.541 17.7817 146.144 17.8234C145.757 17.865 145.422 17.938 145.14 18.0421C144.868 18.1464 144.654 18.2869 144.498 18.4641C144.35 18.6412 144.278 18.8651 144.278 19.136Z" fill="#5F5F5F"/>
<path d="M160.664 24.8705C160.664 25.3601 160.727 25.7872 160.852 26.1518C160.988 26.5164 161.171 26.8237 161.401 27.0737C161.631 27.3133 161.898 27.4956 162.2 27.6206C162.514 27.7352 162.849 27.7926 163.204 27.7926C163.622 27.7926 164.025 27.73 164.412 27.605C164.799 27.48 165.138 27.2872 165.431 27.0268C165.734 26.7664 165.975 26.4383 166.153 26.0424C166.329 25.6466 166.419 25.183 166.419 24.6518V18.0266C166.419 17.037 166.597 16.2765 166.952 15.7453C167.318 15.2141 167.94 14.9484 168.818 14.9484C169.748 14.9484 170.412 15.2141 170.809 15.7453C171.217 16.2765 171.421 17.037 171.421 18.0266V27.5894C171.421 28.579 171.217 29.3394 170.809 29.8706C170.412 30.402 169.748 30.6676 168.818 30.6676C167.94 30.6676 167.318 30.402 166.952 29.8706C166.597 29.3394 166.419 28.579 166.419 27.5894C166.2 28.0686 165.912 28.506 165.556 28.9019C165.211 29.2978 164.804 29.6415 164.333 29.9331C163.873 30.2145 163.361 30.4332 162.797 30.5894C162.243 30.7457 161.641 30.8238 160.993 30.8238C160.293 30.8238 159.619 30.704 158.97 30.4645C158.333 30.2145 157.768 29.8498 157.277 29.3706C156.786 28.8811 156.394 28.2768 156.101 27.5582C155.808 26.8393 155.662 26.0008 155.662 25.0424V18.0266C155.662 17.037 155.84 16.2765 156.195 15.7453C156.561 15.2141 157.182 14.9484 158.061 14.9484C158.991 14.9484 159.655 15.2141 160.052 15.7453C160.46 16.2765 160.664 17.037 160.664 18.0266V24.8705Z" fill="#5F5F5F"/>
<path d="M173.693 18.0266C173.693 17.0369 173.871 16.2765 174.227 15.7453C174.592 15.2141 175.215 14.9483 176.092 14.9483C177.024 14.9483 177.687 15.2141 178.085 15.7453C178.492 16.2765 178.696 17.0369 178.696 18.0266C178.905 17.5265 179.187 17.0735 179.543 16.6672C179.909 16.2505 180.322 15.8964 180.781 15.6046C181.252 15.313 181.759 15.089 182.303 14.9327C182.846 14.7661 183.41 14.6827 183.997 14.6827C184.54 14.6827 185.072 14.7557 185.596 14.9015C186.128 15.0369 186.621 15.2609 187.07 15.5734C187.529 15.8754 187.932 16.2609 188.277 16.7297C188.622 17.1984 188.889 17.761 189.077 18.4172C189.401 17.7194 189.783 17.1308 190.221 16.6516C190.66 16.1724 191.137 15.7869 191.648 15.4953C192.16 15.2036 192.694 14.9953 193.248 14.8702C193.813 14.7453 194.376 14.6827 194.941 14.6827C195.61 14.6827 196.248 14.8026 196.854 15.0421C197.471 15.2817 198.009 15.6464 198.47 16.136C198.941 16.6151 199.311 17.2245 199.583 17.9642C199.865 18.6932 200.006 19.5475 200.006 20.5266V27.5893C200.006 28.579 199.802 29.3394 199.394 29.8706C198.998 30.4019 198.333 30.6675 197.403 30.6675C196.525 30.6675 195.903 30.4019 195.538 29.8706C195.182 29.3394 195.004 28.579 195.004 27.5893V20.7454C195.004 20.2766 194.941 19.8599 194.817 19.4954C194.691 19.1203 194.513 18.8079 194.283 18.5579C194.063 18.2975 193.802 18.1047 193.498 17.9798C193.196 17.8443 192.871 17.7766 192.527 17.7766C192.097 17.7766 191.691 17.8443 191.304 17.9798C190.917 18.1151 190.577 18.3235 190.284 18.6047C190.002 18.886 189.772 19.2454 189.594 19.6829C189.427 20.1203 189.344 20.6465 189.344 21.261V27.5893C189.344 28.579 189.139 29.3394 188.732 29.8706C188.335 30.4019 187.671 30.6675 186.74 30.6675C185.862 30.6675 185.24 30.4019 184.874 29.8706C184.518 29.3394 184.34 28.579 184.34 27.5893V21.0422C184.34 19.9694 184.116 19.1569 183.667 18.6047C183.227 18.0527 182.626 17.7766 181.864 17.7766C181.414 17.7766 180.995 17.8495 180.608 17.9954C180.222 18.1412 179.887 18.3547 179.605 18.636C179.323 18.9172 179.098 19.2662 178.93 19.6829C178.774 20.0995 178.696 20.5788 178.696 21.1204V27.5893C178.696 28.579 178.492 29.3394 178.085 29.8706C177.687 30.4019 177.024 30.6675 176.092 30.6675C175.215 30.6675 174.592 30.4019 174.227 29.8706C173.871 29.3394 173.693 28.579 173.693 27.5893V18.0266Z" fill="#5F5F5F"/>
<path d="M20.0723 28.0004C15.6383 28.0004 12.0437 24.4186 12.0437 20.0002C12.0437 15.5818 15.6383 12 20.0723 12C24.5064 12 28.101 15.5818 28.101 20.0002C28.101 24.4186 24.5064 28.0004 20.0723 28.0004Z" fill="#6F2DE8"/>
<path d="M4.51125 22.7324C2.18462 23.1412 0.589838 25.3807 1.48296 27.5603C2.72986 30.603 4.71913 33.314 7.29808 35.4325C10.9858 38.4615 15.637 40.08 20.4154 39.997C25.1938 39.9139 29.7856 38.1345 33.3651 34.979C35.8681 32.7723 37.7613 29.9937 38.901 26.9094C39.7172 24.7002 38.0448 22.5175 35.7053 22.1899C33.3659 21.8623 31.2653 23.5591 30.1097 25.6125C29.4834 26.7254 28.6702 27.7352 27.6961 28.594C25.6423 30.4046 23.0077 31.4254 20.2662 31.4732C17.5246 31.5208 14.8559 30.5922 12.74 28.8542C11.7363 28.0297 10.8884 27.0489 10.2234 25.9584C8.99659 23.9464 6.83789 22.3236 4.51125 22.7324Z" fill="#6F2DE8"/>
<path d="M39.988 22.4999C40.0905 21.6811 40.1432 20.8469 40.1432 20.0005C40.1432 8.95453 31.1569 0 20.0716 0C8.98636 0 0 8.95453 0 20.0005C0 21.0868 0.08691 22.1528 0.254187 23.1922C1.17612 21.9346 2.61501 21.0368 4.16922 20.7637C5.85081 20.4683 7.3791 20.8747 8.67129 21.6343C8.59496 21.1007 8.55545 20.5552 8.55545 20.0005C8.55545 13.6629 13.7114 8.52515 20.0716 8.52515C26.4318 8.52515 31.5878 13.6629 31.5878 20.0005C31.5878 20.4184 31.5653 20.8311 31.5217 21.2373C32.7866 20.4329 34.3 19.9733 35.9912 20.2103C37.5536 20.4291 39.0225 21.2757 39.988 22.4999Z" fill="#D14FE9"/>
</svg>
