<svg width="220" height="40" viewBox="0 0 220 40" fill="none" xmlns="http://www.w3.org/2000/svg">
<path d="M14.8277 33.948C10.5893 38.1776 3.41108 38.1608 1.4064 32.5237C1.01391 31.42 0.700101 30.2852 0.469295 29.1273C-0.473078 24.3994 0.0105822 19.499 1.85912 15.0455C3.70765 10.592 6.83803 6.78558 10.8544 4.1075C14.8708 1.42942 19.5928 -2.06488e-07 24.4233 0C29.2537 2.06488e-07 33.9757 1.42942 37.992 4.1075C42.0084 6.78558 45.1388 10.592 46.9873 15.0456C48.8358 19.499 49.3194 24.3994 48.3771 29.1273C48.1463 30.2852 47.8325 31.42 47.4399 32.5237C45.4353 38.1608 38.2571 38.1776 34.0187 33.948L27.4761 27.419C26.851 26.7953 26.9156 25.7665 27.0881 24.9014C27.1928 24.3755 27.139 23.8303 26.9333 23.3349C26.7277 22.8394 26.3795 22.4159 25.9327 22.1181C25.4859 21.8202 24.9606 21.6611 24.4233 21.6611C23.8859 21.6611 23.3606 21.8202 22.9138 22.1181C22.4668 22.4159 22.1187 22.8394 21.913 23.3349C21.7073 23.8303 21.6536 24.3755 21.7584 24.9014C21.9309 25.7665 21.9953 26.7953 21.3703 27.419L14.8277 33.948Z" fill="#FFA401"/>
<path d="M68.7185 28.0982H75.2834V31.9589H63.7068V11.4275H68.7185V28.0982Z" fill="#003A70"/>
<path d="M84.2351 32.1911C82.6329 32.1911 81.1871 31.8499 79.8975 31.1675C78.6276 30.485 77.6213 29.5101 76.8788 28.2428C76.1559 26.9754 75.7944 25.4935 75.7944 23.7971C75.7944 22.1204 76.1656 20.6482 76.908 19.3808C77.6506 18.094 78.6666 17.1094 79.9561 16.4269C81.2457 15.7445 82.6916 15.4033 84.2937 15.4033C85.8959 15.4033 87.3417 15.7445 88.6312 16.4269C89.9208 17.1094 90.9368 18.094 91.6792 19.3808C92.4217 20.6482 92.793 22.1204 92.793 23.7971C92.793 25.474 92.4119 26.9558 91.65 28.2428C90.9075 29.5101 89.8818 30.485 88.5726 31.1675C87.2831 31.8499 85.8372 32.1911 84.2351 32.1911ZM84.2351 27.8624C85.1924 27.8624 86.0033 27.5116 86.6677 26.8096C87.3515 26.1077 87.6934 25.1036 87.6934 23.7971C87.6934 22.4908 87.3612 21.4867 86.6969 20.7848C86.0521 20.0828 85.2511 19.7318 84.2937 19.7318C83.3168 19.7318 82.5059 20.0828 81.8611 20.7848C81.2163 21.4672 80.894 22.4712 80.894 23.7971C80.894 25.1036 81.2067 26.1077 81.8319 26.8096C82.4767 27.5116 83.2777 27.8624 84.2351 27.8624Z" fill="#003A70"/>
<path d="M100.792 15.4033C101.945 15.4033 102.951 15.6373 103.811 16.1053C104.69 16.5731 105.364 17.1874 105.833 17.9477V15.6373H110.844V31.9278C110.844 33.4291 110.542 34.7843 109.936 35.9931C109.35 37.2215 108.441 38.1964 107.21 38.9178C105.999 39.6393 104.485 40.0001 102.668 40.0001C100.245 40.0001 98.2811 39.4249 96.7766 38.2745C95.2722 37.1435 94.4124 35.6032 94.1975 33.6534H99.1506C99.3068 34.2773 99.6781 34.7648 100.264 35.1158C100.85 35.4862 101.573 35.6714 102.433 35.6714C103.469 35.6714 104.289 35.3692 104.895 34.7648C105.52 34.1798 105.833 33.2342 105.833 31.9278V29.6174C105.344 30.3777 104.67 31.0017 103.811 31.4891C102.951 31.9571 101.945 32.1911 100.792 32.1911C99.4437 32.1911 98.2225 31.8499 97.1283 31.1674C96.0341 30.4655 95.1646 29.4808 94.52 28.2134C93.8948 26.9266 93.5821 25.4448 93.5821 23.768C93.5821 22.0911 93.8948 20.619 94.52 19.3516C95.1646 18.0843 96.0341 17.1094 97.1283 16.4269C98.2225 15.7445 99.4437 15.4033 100.792 15.4033ZM105.833 23.7971C105.833 22.5493 105.481 21.5646 104.778 20.8432C104.094 20.1219 103.254 19.7611 102.257 19.7611C101.261 19.7611 100.411 20.1219 99.7074 20.8432C99.0235 21.5452 98.6816 22.5201 98.6816 23.768C98.6816 25.0158 99.0235 26.0102 99.7074 26.7511C100.411 27.4725 101.261 27.8333 102.257 27.8333C103.254 27.8333 104.094 27.4725 104.778 26.7511C105.481 26.0296 105.833 25.0451 105.833 23.7971Z" fill="#003A70"/>
<path d="M121.023 32.1911C119.421 32.1911 117.975 31.8499 116.685 31.1675C115.415 30.485 114.409 29.5101 113.667 28.2428C112.944 26.9754 112.582 25.4935 112.582 23.7971C112.582 22.1204 112.953 20.6482 113.696 19.3808C114.438 18.094 115.454 17.1094 116.744 16.4269C118.034 15.7445 119.479 15.4033 121.082 15.4033C122.684 15.4033 124.13 15.7445 125.419 16.4269C126.709 17.1094 127.725 18.094 128.467 19.3808C129.21 20.6482 129.581 22.1204 129.581 23.7971C129.581 25.474 129.2 26.9558 128.438 28.2428C127.695 29.5101 126.67 30.485 125.36 31.1675C124.071 31.8499 122.625 32.1911 121.023 32.1911ZM121.023 27.8624C121.98 27.8624 122.791 27.5116 123.456 26.8096C124.139 26.1077 124.481 25.1036 124.481 23.7971C124.481 22.4908 124.149 21.4867 123.485 20.7848C122.84 20.0828 122.039 19.7318 121.082 19.7318C120.105 19.7318 119.294 20.0828 118.649 20.7848C118.004 21.4672 117.682 22.4712 117.682 23.7971C117.682 25.1036 117.994 26.1077 118.62 26.8096C119.265 27.5116 120.066 27.8624 121.023 27.8624Z" fill="#003A70"/>
<path d="M133.884 13.9421C133.005 13.9421 132.282 13.6886 131.716 13.1816C131.168 12.6552 130.895 12.0118 130.895 11.2513C130.895 10.4714 131.168 9.82799 131.716 9.32104C132.282 8.79459 133.005 8.53137 133.884 8.53137C134.744 8.53137 135.447 8.79459 135.994 9.32104C136.561 9.82799 136.844 10.4714 136.844 11.2513C136.844 12.0118 136.561 12.6552 135.994 13.1816C135.447 13.6886 134.744 13.9421 133.884 13.9421ZM136.375 15.6384V31.9582H131.364V15.6384H136.375Z" fill="#003A70"/>
<path d="M144.144 17.9477C144.632 17.1874 145.306 16.5731 146.166 16.1053C147.026 15.6373 148.033 15.4033 149.185 15.4033C150.534 15.4033 151.754 15.7445 152.849 16.4269C153.943 17.1094 154.803 18.0843 155.428 19.3516C156.072 20.619 156.395 22.0911 156.395 23.768C156.395 25.4448 156.072 26.9266 155.428 28.2134C154.803 29.4808 153.943 30.4655 152.849 31.1675C151.754 31.8499 150.534 32.1911 149.185 32.1911C148.051 32.1911 147.046 31.9571 146.166 31.4891C145.306 31.0211 144.632 30.4168 144.144 29.6759V39.7368H139.133V15.6373H144.144V17.9477ZM151.296 23.768C151.296 22.5201 150.944 21.5452 150.24 20.8432C149.556 20.1219 148.707 19.7611 147.691 19.7611C146.694 19.7611 145.844 20.1219 145.14 20.8432C144.457 21.5646 144.115 22.5493 144.115 23.7971C144.115 25.0451 144.457 26.0296 145.14 26.7511C145.844 27.4725 146.694 27.8333 147.691 27.8333C148.687 27.8333 149.537 27.4725 150.24 26.7511C150.944 26.0102 151.296 25.0158 151.296 23.768Z" fill="#003A70"/>
<path d="M164.79 32.1911C163.364 32.1911 162.093 31.9473 160.979 31.4599C159.866 30.9724 158.986 30.3095 158.342 29.471C157.698 28.6131 157.336 27.6578 157.258 26.6048H162.211C162.269 27.1703 162.533 27.6285 163.002 27.9794C163.472 28.3304 164.048 28.5059 164.732 28.5059C165.356 28.5059 165.835 28.3889 166.167 28.1549C166.519 27.9015 166.695 27.5797 166.695 27.1898C166.695 26.7218 166.451 26.3806 165.962 26.1662C165.474 25.9322 164.682 25.6788 163.588 25.4057C162.416 25.1328 161.439 24.8501 160.657 24.5576C159.876 24.2457 159.202 23.768 158.636 23.1245C158.068 22.4616 157.786 21.5744 157.786 20.4631C157.786 19.5271 158.04 18.679 158.548 17.9185C159.074 17.1387 159.837 16.5244 160.833 16.076C161.849 15.6275 163.051 15.4033 164.438 15.4033C166.489 15.4033 168.101 15.9102 169.274 16.9241C170.466 17.9381 171.15 19.2834 171.326 20.9602H166.695C166.617 20.3948 166.363 19.9464 165.933 19.6148C165.522 19.2834 164.976 19.1177 164.292 19.1177C163.706 19.1177 163.256 19.2347 162.944 19.4686C162.631 19.6831 162.475 19.9853 162.475 20.3753C162.475 20.8432 162.719 21.1942 163.208 21.4282C163.716 21.6622 164.496 21.8962 165.552 22.13C166.763 22.4421 167.749 22.7541 168.512 23.066C169.274 23.3585 169.938 23.8459 170.504 24.5284C171.091 25.1913 171.394 26.0881 171.414 27.2191C171.414 28.1745 171.14 29.0324 170.592 29.7928C170.066 30.5338 169.294 31.1187 168.277 31.5476C167.281 31.9766 166.119 32.1911 164.79 32.1911Z" fill="#003A70"/>
<path d="M189.766 15.6377V31.9575H184.754V29.7347C184.246 30.4561 183.552 31.0411 182.673 31.4895C181.813 31.9185 180.857 32.133 179.801 32.133C178.55 32.133 177.446 31.86 176.489 31.314C175.531 30.7486 174.789 29.9394 174.262 28.8866C173.734 27.8337 173.47 26.5956 173.47 25.1721V15.6377H178.452V24.4995C178.452 25.5914 178.736 26.4395 179.302 27.044C179.869 27.6484 180.631 27.9507 181.589 27.9507C182.565 27.9507 183.338 27.6484 183.904 27.044C184.47 26.4395 184.754 25.5914 184.754 24.4995V15.6377H189.766Z" fill="#003A70"/>
<path d="M213.344 15.4611C215.375 15.4611 216.987 16.0752 218.18 17.3036C219.39 18.5319 219.996 20.238 219.996 22.4218V31.9563H215.014V23.0945C215.014 22.0416 214.731 21.2324 214.164 20.667C213.616 20.082 212.856 19.7895 211.878 19.7895C210.901 19.7895 210.129 20.082 209.563 20.667C209.016 21.2324 208.742 22.0416 208.742 23.0945V31.9563H203.759V23.0945C203.759 22.0416 203.477 21.2324 202.91 20.667C202.362 20.082 201.6 19.7895 200.624 19.7895C199.647 19.7895 198.875 20.082 198.309 20.667C197.761 21.2324 197.488 22.0416 197.488 23.0945V31.9563H192.477V15.6366H197.488V17.6838C197.997 17.0014 198.661 16.4651 199.481 16.0752C200.302 15.6657 201.23 15.4611 202.265 15.4611C203.496 15.4611 204.591 15.7242 205.547 16.2507C206.524 16.7772 207.286 17.5279 207.834 18.5028C208.4 17.6058 209.172 16.8746 210.149 16.3092C211.125 15.7438 212.191 15.4611 213.344 15.4611Z" fill="#003A70"/>
</svg>
