<svg width="478" height="251" viewBox="0 0 478 251" fill="none" xmlns="http://www.w3.org/2000/svg">
<path d="M103.109 197.554C101.39 198.014 99.731 198.045 98.133 197.644C96.5544 197.239 95.1601 196.402 93.9501 195.131C92.735 193.842 91.8479 192.154 91.2888 190.068C90.502 187.131 90.3396 184.4 90.8017 181.875C91.2831 179.344 92.2783 177.224 93.7875 175.515C95.3159 173.801 97.2007 172.644 99.4416 172.043C101.161 171.583 102.81 171.555 104.389 171.96C105.987 172.36 107.393 173.205 108.608 174.494C109.818 175.765 110.703 177.443 111.262 179.529C112.049 182.466 112.201 185.199 111.72 187.73C111.258 190.256 110.263 192.376 108.734 194.09C107.225 195.798 105.35 196.953 103.109 197.554ZM102.483 194.056C103.989 193.653 105.189 192.835 106.08 191.602C106.991 190.364 107.535 188.841 107.713 187.033C107.886 185.206 107.693 183.25 107.134 181.163C106.518 178.864 105.569 177.255 104.288 176.335C103.001 175.397 101.594 175.132 100.068 175.541C98.5805 175.939 97.3911 176.755 96.4998 177.987C95.6033 179.201 95.0588 180.724 94.8665 182.556C94.669 184.369 94.8523 186.328 95.4166 188.434C96.0325 190.733 96.984 192.352 98.2708 193.29C99.5525 194.21 100.956 194.465 102.483 194.056ZM119.819 193.076C118.949 193.309 118.129 193.105 117.356 192.463C116.598 191.796 116.058 190.864 115.737 189.666C115.349 188.217 115.091 186.868 114.963 185.619C114.83 184.35 114.805 182.98 114.887 181.508C114.925 180.877 115.084 180.389 115.364 180.045C115.645 179.701 116.162 179.428 116.915 179.226C117.34 179.112 117.648 179.102 117.839 179.196C118.049 179.284 118.19 179.464 118.263 179.734C118.304 179.889 118.338 180.439 118.363 181.385C118.362 182.151 118.38 182.84 118.42 183.45C118.577 185.582 118.746 186.986 118.927 187.662C119.036 188.068 119.162 188.345 119.305 188.493C119.443 188.622 119.618 188.657 119.831 188.601C120.121 188.523 120.4 188.137 120.67 187.444C120.959 186.745 121.187 185.742 121.354 184.434C121.541 183.121 121.636 181.543 121.639 179.699C121.638 179.078 121.758 178.601 122 178.267C122.261 177.928 122.711 177.673 123.348 177.502C123.793 177.383 124.117 177.358 124.322 177.427C124.522 177.477 124.661 177.647 124.738 177.937C124.868 178.42 124.981 179.808 125.077 182.101C125.199 184.719 125.338 186.317 125.493 186.897C125.591 187.264 125.746 187.533 125.958 187.704C126.164 187.856 126.393 187.898 126.644 187.831C127.03 187.727 127.422 187.374 127.819 186.771C128.231 186.143 128.739 185.178 129.343 183.878C129.502 183.545 129.727 183.34 130.016 183.262C130.267 183.195 130.492 183.259 130.689 183.455C130.906 183.645 131.068 183.943 131.177 184.349C131.384 185.122 131.361 185.77 131.108 186.293C130.552 187.54 129.878 188.621 129.089 189.536C128.318 190.447 127.324 191.065 126.107 191.391C125.18 191.64 124.398 191.466 123.762 190.87C123.146 190.269 122.664 189.322 122.317 188.027C122.341 189.429 122.12 190.575 121.655 191.466C121.184 192.338 120.572 192.874 119.819 193.076ZM139.362 177.466C139.787 177.352 140.186 177.411 140.558 177.642C140.945 177.849 141.198 178.175 141.317 178.619C141.384 178.871 141.399 179.157 141.361 179.477C141.243 180.275 140.969 180.99 140.538 181.623C140.107 182.256 139.554 182.664 138.878 182.845C138.337 182.99 137.821 182.921 137.331 182.638C136.861 182.35 136.537 181.877 136.361 181.221C136.263 180.854 136.176 180.452 136.101 180.017C136.057 179.698 136.019 179.48 135.988 179.364C135.947 179.209 135.877 179.104 135.779 179.047C135.7 178.986 135.613 178.968 135.516 178.993C135.246 179.066 134.967 179.493 134.679 180.274C134.386 181.036 134.15 182.01 133.971 183.197C133.792 184.383 133.716 185.605 133.742 186.861C133.778 187.845 133.702 188.528 133.514 188.909C133.327 189.291 132.924 189.565 132.306 189.73C131.572 189.927 130.947 189.68 130.43 188.99C129.934 188.295 129.457 187.098 129.002 185.398C128.329 182.886 128.047 180.405 128.156 177.953C128.18 177.346 128.351 176.865 128.67 176.511C129.004 176.132 129.528 175.846 130.242 175.655C130.629 175.551 130.912 175.527 131.093 175.582C131.273 175.637 131.399 175.8 131.472 176.071C131.555 176.38 131.596 177.114 131.596 178.274C131.61 179.098 131.637 179.816 131.676 180.426C131.716 181.037 131.811 181.777 131.961 182.648C132.153 180.816 132.506 179.272 133.018 178.017C133.531 176.761 134.104 175.81 134.739 175.164C135.373 174.518 135.999 174.112 136.618 173.946C137.178 173.796 137.647 173.847 138.025 174.097C138.416 174.324 138.695 174.746 138.861 175.364C138.959 175.731 139.039 176.455 139.101 177.536L139.362 177.466ZM170.056 160.949C170.496 162.591 170.475 164.212 169.992 165.811C169.51 167.411 168.574 168.862 167.184 170.167C165.794 171.471 163.999 172.5 161.8 173.255L162.425 180.573C162.661 183.388 161.708 185.082 159.563 185.657C158.385 185.972 157.2 185.917 156.009 185.491C154.838 185.059 153.761 184.209 152.779 182.94C151.797 181.671 151.026 179.993 150.467 177.907C149.417 173.985 149.154 170.494 149.68 167.434C150.22 164.349 151.371 161.846 153.134 159.924C154.911 157.978 157.084 156.66 159.653 155.972C161.469 155.485 163.09 155.393 164.517 155.694C165.963 155.99 167.152 156.603 168.085 157.533C169.031 158.439 169.688 159.578 170.056 160.949ZM161.522 170.131C165.347 168.567 166.776 165.979 165.808 162.367C165.466 161.092 164.765 160.172 163.702 159.608C162.654 159.019 161.251 158.96 159.493 159.431C157.503 159.964 155.933 161.058 154.782 162.712C153.65 164.362 152.979 166.415 152.768 168.874C152.571 171.307 152.856 173.954 153.622 176.813C153.943 178.011 154.343 179.042 154.824 179.908C155.323 180.768 155.826 181.409 156.333 181.832C156.854 182.231 157.289 182.384 157.636 182.291C158.119 182.161 158.308 181.396 158.202 179.996L157.69 174.263C156.906 174.349 156.565 174.389 156.666 174.382C156.061 174.441 155.638 174.368 155.397 174.164C155.15 173.94 154.973 173.625 154.864 173.219C154.75 172.794 154.775 172.425 154.94 172.112C155.124 171.793 155.428 171.577 155.853 171.463C156.046 171.412 156.194 171.382 156.296 171.376C156.78 171.329 157.15 171.281 157.407 171.233C157.254 169.659 157.071 167.545 156.856 164.89C156.796 164.202 156.933 163.668 157.266 163.289C157.613 162.886 158.067 162.609 158.627 162.459C159.265 162.288 159.752 162.292 160.09 162.47C160.442 162.624 160.688 162.962 160.828 163.484C160.91 163.793 160.958 164.049 160.971 164.253L161.522 170.131ZM176.685 177.839C175.487 178.16 174.414 177.981 173.467 177.304C172.519 176.626 171.856 175.582 171.478 174.172C171.064 172.626 171.031 171.072 171.378 169.509C171.72 167.926 172.369 166.562 173.325 165.415C174.295 164.244 175.446 163.48 176.779 163.123C177.204 163.009 177.508 163.021 177.69 163.159C177.886 163.272 178.089 163.528 178.299 163.927C178.684 163.741 179.099 163.589 179.543 163.469C180.49 163.216 181.054 163.427 181.235 164.103C181.344 164.509 181.458 165.514 181.577 167.117C181.728 169.458 181.92 171.063 182.153 171.933C182.23 172.222 182.36 172.436 182.542 172.574C182.743 172.706 182.959 172.741 183.191 172.679C183.558 172.581 183.94 172.23 184.338 171.627C184.73 171.004 185.228 170.042 185.832 168.741C185.991 168.409 186.216 168.204 186.506 168.126C186.757 168.059 186.981 168.123 187.178 168.319C187.395 168.509 187.558 168.807 187.667 169.213C187.874 169.985 187.851 170.634 187.597 171.157C187.069 172.354 186.452 173.41 185.744 174.324C185.037 175.239 184.267 175.807 183.437 176.03C182.799 176.201 182.153 176.146 181.498 175.866C180.858 175.561 180.301 175.069 179.829 174.388C179.259 176.28 178.211 177.43 176.685 177.839ZM176.944 174.633C177.369 174.519 177.707 174.159 177.959 173.553C178.211 172.947 178.312 172.206 178.264 171.328L177.907 165.709C177.101 165.946 176.43 166.457 175.895 167.242C175.375 168.003 175.041 168.921 174.894 169.995C174.747 171.07 174.818 172.148 175.108 173.23C175.269 173.829 175.504 174.242 175.813 174.47C176.142 174.692 176.519 174.747 176.944 174.633ZM195.846 162.331C196.271 162.217 196.67 162.276 197.042 162.508C197.429 162.715 197.682 163.04 197.801 163.485C197.868 163.736 197.883 164.022 197.845 164.342C197.727 165.14 197.453 165.855 197.022 166.489C196.591 167.122 196.038 167.529 195.362 167.71C194.821 167.855 194.305 167.786 193.815 167.503C193.345 167.215 193.021 166.743 192.845 166.086C192.747 165.719 192.66 165.318 192.585 164.882C192.541 164.563 192.503 164.345 192.472 164.229C192.431 164.075 192.361 163.969 192.263 163.912C192.184 163.851 192.097 163.833 192 163.859C191.73 163.931 191.451 164.358 191.163 165.139C190.87 165.901 190.634 166.875 190.455 168.062C190.277 169.248 190.2 170.47 190.226 171.726C190.262 172.71 190.186 173.393 189.999 173.775C189.811 174.156 189.408 174.43 188.79 174.595C188.056 174.792 187.431 174.546 186.914 173.856C186.418 173.161 185.941 171.963 185.486 170.263C184.813 167.752 184.531 165.27 184.64 162.818C184.664 162.211 184.835 161.731 185.154 161.376C185.488 160.997 186.012 160.711 186.726 160.52C187.113 160.416 187.396 160.392 187.577 160.447C187.757 160.503 187.884 160.665 187.956 160.936C188.039 161.245 188.08 161.979 188.08 163.139C188.094 163.963 188.121 164.681 188.16 165.291C188.2 165.902 188.295 166.643 188.445 167.513C188.637 165.681 188.99 164.137 189.502 162.882C190.015 161.626 190.588 160.676 191.223 160.029C191.857 159.383 192.483 158.977 193.102 158.812C193.662 158.662 194.131 158.712 194.509 158.963C194.9 159.189 195.179 159.611 195.345 160.229C195.443 160.596 195.523 161.32 195.585 162.401L195.846 162.331ZM212.234 161.232C212.485 161.165 212.709 161.229 212.906 161.425C213.123 161.615 213.286 161.913 213.394 162.319C213.601 163.092 213.578 163.74 213.325 164.263C212.769 165.51 212.086 166.593 211.277 167.514C210.467 168.435 209.425 169.066 208.15 169.408C204.209 170.464 201.496 168.22 200.01 162.675C199.783 161.825 199.581 160.958 199.406 160.073L198.276 160.376C197.697 160.531 197.272 160.531 197.003 160.375C196.753 160.214 196.565 159.902 196.441 159.439C196.151 158.357 196.441 157.699 197.31 157.466L198.962 157.024C198.721 154.811 198.703 152.735 198.908 150.796C199.113 148.856 199.549 147.238 200.216 145.942C200.903 144.64 201.797 143.841 202.898 143.546C203.709 143.329 204.442 143.515 205.098 144.106C205.753 144.696 206.225 145.532 206.515 146.614C207.318 149.609 206.761 152.553 204.845 155.448L208.09 154.578C208.399 154.495 208.639 154.503 208.811 154.602C208.982 154.701 209.117 154.934 209.216 155.301C209.573 156.634 208.66 157.593 206.477 158.178L202.942 159.126C203.162 160.102 203.344 160.86 203.489 161.401C204.028 163.41 204.637 164.759 205.318 165.446C206.019 166.128 206.881 166.332 207.905 166.057C208.735 165.835 209.402 165.387 209.905 164.714C210.408 164.041 210.96 163.085 211.56 161.848C211.719 161.515 211.944 161.31 212.234 161.232ZM202.861 146.538C202.571 146.615 202.341 147.07 202.171 147.903C202.014 148.711 201.946 149.806 201.964 151.188C201.996 152.546 202.116 154.036 202.323 155.658C203.199 154.367 203.754 153.038 203.988 151.671C204.236 150.279 204.226 149.081 203.956 148.076C203.651 146.937 203.286 146.424 202.861 146.538ZM214.513 167.703C213.779 167.9 213.154 167.653 212.638 166.963C212.141 166.268 211.665 165.07 211.209 163.37C210.536 160.859 210.254 158.377 210.364 155.926C210.387 155.319 210.559 154.838 210.878 154.483C211.211 154.104 211.735 153.819 212.45 153.627C212.836 153.524 213.12 153.5 213.3 153.555C213.48 153.61 213.607 153.773 213.679 154.043C213.762 154.352 213.804 155.087 213.804 156.246C213.818 157.071 213.844 157.788 213.884 158.399C213.923 159.009 214.018 159.75 214.168 160.621C214.361 158.789 214.713 157.245 215.226 155.989C215.738 154.734 216.312 153.783 216.946 153.137C217.6 152.485 218.245 152.074 218.883 151.904C220.139 151.567 220.935 152.027 221.271 153.282C221.473 154.036 221.625 155.455 221.728 157.539C221.812 159.318 221.926 160.478 222.071 161.019C222.278 161.792 222.662 162.103 223.222 161.953C223.608 161.849 224 161.496 224.397 160.893C224.809 160.265 225.317 159.3 225.921 158C226.08 157.667 226.304 157.462 226.594 157.384C226.845 157.317 227.07 157.381 227.267 157.577C227.484 157.767 227.646 158.065 227.755 158.471C227.962 159.244 227.939 159.892 227.686 160.415C227.13 161.662 226.456 162.743 225.666 163.658C224.896 164.569 223.902 165.187 222.685 165.513C221.7 165.777 220.881 165.696 220.228 165.271C219.571 164.826 219.097 164.062 218.807 162.981C218.662 162.44 218.539 161.437 218.437 159.974C218.362 158.69 218.262 157.816 218.138 157.352C218.055 157.043 217.907 156.917 217.695 156.974C217.444 157.041 217.174 157.465 216.887 158.246C216.613 159.003 216.377 159.977 216.179 161.169C216 162.356 215.923 163.577 215.949 164.833C215.98 165.798 215.895 166.484 215.693 166.89C215.505 167.271 215.112 167.542 214.513 167.703ZM237.985 154.332C238.236 154.265 238.461 154.329 238.658 154.525C238.875 154.715 239.037 155.013 239.146 155.419C239.353 156.192 239.33 156.84 239.077 157.363C238.595 158.424 237.796 159.497 236.679 160.583C235.581 161.664 234.288 162.404 232.801 162.803C230.772 163.346 229.05 163.218 227.635 162.417C226.219 161.616 225.255 160.259 224.743 158.346C224.386 157.013 224.335 155.702 224.589 154.412C224.839 153.103 225.366 151.978 226.17 151.038C226.993 150.093 228.033 149.452 229.289 149.115C230.409 148.815 231.398 148.912 232.255 149.407C233.108 149.883 233.686 150.691 233.992 151.831C234.349 153.164 234.174 154.442 233.467 155.667C232.774 156.867 231.363 158.053 229.233 159.224C229.954 159.983 230.991 160.182 232.343 159.819C233.213 159.587 234.118 159.023 235.058 158.129C236.013 157.211 236.764 156.15 237.312 154.948C237.471 154.615 237.695 154.41 237.985 154.332ZM229.557 152.087C228.842 152.279 228.345 152.857 228.065 153.822C227.805 154.782 227.833 155.852 228.148 157.03L228.164 157.088C229.231 156.512 230.021 155.866 230.533 155.149C231.045 154.432 231.205 153.716 231.013 153.001C230.915 152.634 230.731 152.373 230.462 152.217C230.206 152.037 229.905 151.994 229.557 152.087ZM247.321 148.539C247.746 148.425 248.145 148.483 248.518 148.715C248.904 148.922 249.157 149.247 249.276 149.692C249.344 149.943 249.358 150.229 249.32 150.55C249.202 151.347 248.928 152.063 248.497 152.696C248.066 153.329 247.513 153.736 246.837 153.917C246.296 154.062 245.78 153.993 245.291 153.71C244.82 153.422 244.497 152.95 244.321 152.293C244.222 151.926 244.136 151.525 244.06 151.089C244.016 150.77 243.978 150.552 243.947 150.436C243.906 150.282 243.836 150.176 243.738 150.12C243.66 150.058 243.572 150.04 243.475 150.066C243.205 150.138 242.926 150.565 242.638 151.346C242.345 152.108 242.11 153.082 241.931 154.269C241.752 155.456 241.675 156.677 241.701 157.933C241.737 158.917 241.661 159.6 241.474 159.982C241.286 160.363 240.883 160.637 240.265 160.803C239.531 160.999 238.906 160.753 238.39 160.063C237.893 159.368 237.417 158.17 236.961 156.47C236.288 153.959 236.006 151.477 236.115 149.025C236.139 148.419 236.311 147.938 236.63 147.583C236.963 147.204 237.487 146.919 238.202 146.727C238.588 146.624 238.871 146.599 239.052 146.655C239.232 146.71 239.359 146.873 239.431 147.143C239.514 147.452 239.555 148.186 239.556 149.346C239.569 150.17 239.596 150.888 239.635 151.499C239.675 152.109 239.77 152.85 239.92 153.721C240.113 151.888 240.465 150.345 240.978 149.089C241.49 147.834 242.064 146.883 242.698 146.237C243.332 145.59 243.959 145.185 244.577 145.019C245.137 144.869 245.606 144.919 245.984 145.17C246.376 145.396 246.654 145.818 246.82 146.437C246.918 146.804 246.999 147.528 247.06 148.608L247.321 148.539ZM257.38 156.9C256.375 157.169 255.54 157.144 254.875 156.826C254.229 156.502 253.829 156.05 253.674 155.471C253.539 154.968 253.606 154.484 253.875 154.019C254.143 153.554 254.635 153.225 255.35 153.034C255.601 152.966 255.899 152.918 256.243 152.888C256.601 152.833 256.869 152.792 257.048 152.765C256.894 152.268 256.652 151.826 256.32 151.438C256.008 151.046 255.643 150.688 255.225 150.365C254.802 150.023 254.414 149.733 254.061 149.497C253.767 150.797 253.422 151.904 253.025 152.818C252.647 153.727 252.201 154.612 251.687 155.475C251.432 155.916 251.112 156.188 250.726 156.292C250.417 156.374 250.137 156.335 249.887 156.175C249.631 155.995 249.46 155.74 249.372 155.412C249.268 155.026 249.308 154.632 249.49 154.231L249.743 153.667C250.453 152.068 250.965 150.771 251.278 149.777C251.476 149.123 251.645 148.363 251.786 147.498C251.946 146.626 252.137 145.447 252.359 143.959C252.499 143.01 253.148 142.381 254.307 142.07C254.848 141.925 255.237 141.873 255.476 141.912C255.714 141.952 255.862 142.078 255.919 142.29C255.95 142.406 255.96 142.6 255.95 142.872C255.94 143.144 255.901 143.423 255.834 143.711C255.672 144.5 255.656 145.135 255.786 145.618C255.863 145.908 256.045 146.201 256.332 146.497C256.637 146.788 257.072 147.137 257.637 147.545C258.473 148.19 259.123 148.762 259.587 149.258C260.066 149.731 260.396 150.305 260.577 150.981C260.794 151.792 260.808 152.617 260.618 153.454C260.443 154.268 260.077 154.987 259.519 155.612C258.962 156.238 258.249 156.667 257.38 156.9Z" fill="#C86CFD"/>
<path d="M301.266 130.298L300.389 130.778L301.266 130.298ZM462.443 39.5485L461.75 40.2689L462.443 39.5485ZM191.065 93.0322L190.907 94.0196L191.065 93.0322ZM7.21254 251L11.559 240.302L0.121227 241.887L7.21254 251ZM7.38437 244.87C7.21083 243.568 7.03799 242.245 6.86747 240.903L4.88342 241.155C5.05452 242.501 5.2279 243.828 5.4019 245.134L7.38437 244.87ZM6.37224 236.886C6.21491 235.567 6.06114 234.233 5.91237 232.883L3.92441 233.102C4.0739 234.458 4.22834 235.799 4.38633 237.123L6.37224 236.886ZM5.49118 228.88C5.3581 227.55 5.23097 226.206 5.11106 224.852L3.11886 225.028C3.23947 226.391 3.36732 227.741 3.50111 229.079L5.49118 228.88ZM4.7817 220.854C4.68009 219.519 4.58647 218.174 4.50202 216.82L2.5059 216.945C2.59095 218.308 2.68519 219.662 2.78746 221.006L4.7817 220.854ZM4.28102 212.815C4.21715 211.478 4.16314 210.134 4.12005 208.785L2.12107 208.849C2.1645 210.209 2.21895 211.563 2.2833 212.911L4.28102 212.815ZM4.02539 204.769C4.0053 203.431 3.99684 202.089 4.00105 200.743L2.00106 200.737C1.99681 202.095 2.00535 203.449 2.02561 204.799L4.02539 204.769ZM4.05211 196.725C4.0822 195.387 4.12571 194.047 4.18364 192.706L2.1855 192.62C2.12696 193.975 2.08301 195.329 2.05262 196.68L4.05211 196.725ZM4.40078 188.694C4.48796 187.359 4.59037 186.024 4.70902 184.689L2.71687 184.512C2.5968 185.863 2.49319 187.214 2.40503 188.564L4.40078 188.694ZM5.11394 180.695C5.26564 179.365 5.43446 178.038 5.62138 176.713L3.641 176.434C3.45153 177.777 3.28048 179.122 3.12684 180.468L5.11394 180.695ZM6.23719 172.75C6.46129 171.431 6.70447 170.117 6.96768 168.807L5.00686 168.413C4.73961 169.743 4.49282 171.077 4.26547 172.415L6.23719 172.75ZM7.8185 164.891C8.12311 163.59 8.44876 162.295 8.79643 161.006L6.86546 160.485C6.51181 161.796 6.18071 163.113 5.87115 164.435L7.8185 164.891ZM9.90663 157.16C10.2996 155.885 10.7155 154.617 11.1554 153.358L9.26734 152.698C8.81902 153.981 8.39535 155.273 7.99529 156.571L9.90663 157.16ZM12.5479 149.608C13.036 148.369 13.549 147.139 14.0878 145.921L12.2585 145.112C11.7085 146.356 11.185 147.611 10.6871 148.875L12.5479 149.608ZM15.7813 142.299C16.3696 141.108 16.9846 139.928 17.627 138.761L15.8748 137.797C15.2179 138.99 14.5893 140.196 13.9882 141.413L15.7813 142.299ZM19.6325 135.305C20.3236 134.175 21.0425 133.057 21.7903 131.953L20.1346 130.832C19.369 131.962 18.6332 133.105 17.9261 134.262L19.6325 135.305ZM24.1087 128.701C24.9013 127.644 25.7227 126.6 26.5737 125.572L25.033 124.297C24.1613 125.35 23.32 126.419 22.5083 127.502L24.1087 128.701ZM29.1945 122.558C30.0831 121.584 31.0009 120.626 31.9487 119.684L30.5385 118.265C29.5677 119.231 28.6277 120.212 27.7174 121.209L29.1945 122.558ZM34.8514 116.933C35.8264 116.053 36.8303 115.188 37.8638 114.339L36.5946 112.793C35.5368 113.662 34.5092 114.547 33.5109 115.449L34.8514 116.933ZM41.0231 111.866C42.0712 111.083 43.1473 110.317 44.2522 109.566L43.1285 107.912C41.9992 108.679 40.8989 109.463 39.827 110.263L41.0231 111.866ZM47.6444 107.37C48.75 106.688 49.8822 106.022 51.0416 105.371L50.0625 103.627C48.8793 104.291 47.7235 104.972 46.5943 105.668L47.6444 107.37ZM54.6022 103.466C55.7644 102.874 56.9522 102.297 58.1659 101.735L57.3261 99.9199C56.0897 100.492 54.8793 101.08 53.6943 101.684L54.6022 103.466ZM61.833 100.119C63.0549 99.6071 64.3015 99.1098 65.5733 98.6279L64.8646 96.7577C63.5714 97.2477 62.3033 97.7535 61.0598 98.2748L61.833 100.119ZM69.2978 97.2858C70.5627 96.8528 71.8512 96.4343 73.1636 96.0307L72.5757 94.119C71.2436 94.5287 69.9351 94.9537 68.6501 95.3936L69.2978 97.2858ZM76.9693 94.9212C78.237 94.5713 79.5259 94.2347 80.8363 93.9118L80.3578 91.9699C79.0297 92.2972 77.723 92.6384 76.4372 92.9932L76.9693 94.9212ZM84.8326 92.9844C86.0939 92.7093 87.3742 92.4464 88.6738 92.1958L88.2952 90.232C86.98 90.4856 85.6838 90.7518 84.4064 91.0304L84.8326 92.9844ZM92.6235 91.4828C93.9593 91.2577 95.3147 91.0452 96.6897 90.8456L96.4024 88.8664C95.0125 89.0681 93.6422 89.283 92.2911 89.5107L92.6235 91.4828ZM100.57 90.3233C101.88 90.1605 103.208 90.009 104.552 89.869L104.345 87.8797C102.988 88.0211 101.647 88.1741 100.324 88.3385L100.57 90.3233ZM108.639 89.4839C109.939 89.3738 111.256 89.2742 112.588 89.1852L112.454 87.1897C111.111 87.2794 109.783 87.3799 108.47 87.491L108.639 89.4839ZM116.563 88.9536C117.903 88.8868 119.259 88.8304 120.63 88.7846L120.563 86.7857C119.181 86.8319 117.815 86.8887 116.463 86.9561L116.563 88.9536ZM124.694 88.6807C125.993 88.6576 127.305 88.6436 128.632 88.6391L128.625 86.6391C127.289 86.6437 125.967 86.6577 124.658 86.681L124.694 88.6807ZM132.651 88.6536C134.005 88.6679 135.373 88.6916 136.754 88.725L136.802 86.7256C135.412 86.692 134.035 86.6681 132.673 86.6537L132.651 88.6536ZM140.763 88.8477C142.068 88.8958 143.385 88.9524 144.714 89.0174L144.812 87.0198C143.475 86.9544 142.15 86.8975 140.836 86.849L140.763 88.8477ZM148.739 89.238C150.093 89.3201 151.459 89.4108 152.838 89.5101L152.982 87.5153C151.596 87.4154 150.222 87.3242 148.86 87.2417L148.739 89.238ZM156.847 89.8208C158.148 89.9286 159.459 90.0439 160.782 90.1669L160.967 88.1755C159.638 88.0519 158.32 87.936 157.012 87.8277L156.847 89.8208ZM164.781 90.5589C166.126 90.6972 167.481 90.8433 168.847 90.9972L169.071 89.0098C167.698 88.8552 166.337 88.7084 164.986 88.5694L164.781 90.5589ZM172.923 91.4757C174.211 91.6331 175.51 91.7972 176.818 91.9682L177.077 89.9851C175.763 89.8134 174.459 89.6485 173.165 89.4905L172.923 91.4757ZM180.771 92.502C182.098 92.6869 183.435 92.8787 184.781 93.0775L185.073 91.0989C183.721 90.8993 182.379 90.7067 181.046 90.5211L180.771 92.502ZM188.851 93.695C189.534 93.8014 190.219 93.9097 190.907 94.0196L191.223 92.0447C190.532 91.9343 189.844 91.8257 189.159 91.7188L188.851 93.695ZM190.907 94.0196C191.574 94.1262 192.239 94.2321 192.903 94.3374L193.216 92.3621C192.553 92.2569 191.889 92.1511 191.223 92.0447L190.907 94.0196ZM196.873 94.9615C198.191 95.1671 199.505 95.3701 200.814 95.5706L201.117 93.5937C199.81 93.3934 198.498 93.1907 197.181 92.9854L196.873 94.9615ZM204.726 96.1646C206.025 96.3601 207.319 96.5532 208.609 96.7437L208.901 94.7652C207.614 94.5749 206.321 94.3821 205.024 94.1869L204.726 96.1646ZM212.463 97.3079C213.796 97.5012 215.124 97.6918 216.446 97.8798L216.727 95.8997C215.407 95.712 214.081 95.5217 212.75 95.3286L212.463 97.3079ZM220.412 98.4378C221.729 98.6211 223.041 98.8017 224.347 98.9798L224.617 96.9981C223.313 96.8203 222.003 96.6399 220.688 96.4568L220.412 98.4378ZM228.251 99.5059C229.547 99.6786 230.838 99.8487 232.123 100.016L232.381 98.033C231.098 97.8658 229.809 97.6959 228.515 97.5234L228.251 99.5059ZM236.065 100.524C237.4 100.694 238.729 100.86 240.052 101.025L240.298 99.0397C238.977 98.8759 237.65 98.7093 236.318 98.5398L236.065 100.524ZM244.003 101.508C245.315 101.667 246.621 101.822 247.921 101.975L248.154 99.9886C246.856 99.8361 245.553 99.6808 244.243 99.5226L244.003 101.508ZM251.804 102.425C253.122 102.575 254.433 102.723 255.739 102.868L255.959 100.88C254.656 100.736 253.346 100.588 252.031 100.438L251.804 102.425ZM259.737 103.304C261.064 103.446 262.384 103.586 263.698 103.722L263.904 101.733C262.593 101.597 261.275 101.458 259.951 101.315L259.737 103.304ZM267.621 104.122C268.922 104.252 270.218 104.38 271.507 104.504L271.699 102.514C270.412 102.389 269.119 102.262 267.82 102.132L267.621 104.122ZM275.469 104.879C276.809 105.004 278.143 105.125 279.469 105.243L279.646 103.25C278.322 103.133 276.991 103.012 275.654 102.888L275.469 104.879ZM283.429 105.587C284.742 105.698 286.048 105.806 287.347 105.911L287.508 103.918C286.211 103.813 284.908 103.705 283.598 103.594L283.429 105.587ZM291.223 106.217C292.573 106.321 293.916 106.421 295.25 106.518L295.395 104.523C294.063 104.426 292.724 104.326 291.377 104.223L291.223 106.217ZM299.24 106.798C300.563 106.889 301.878 106.975 303.185 107.058L303.312 105.063C302.008 104.979 300.696 104.893 299.376 104.803L299.24 106.798ZM307.084 107.298C308.415 107.377 309.738 107.452 311.053 107.524L311.162 105.527C309.85 105.455 308.53 105.38 307.202 105.302L307.084 107.298ZM315.066 107.732C316.396 107.798 317.717 107.861 319.029 107.919L319.118 105.921C317.809 105.863 316.492 105.801 315.165 105.735L315.066 107.732ZM322.942 108.084C324.266 108.136 325.58 108.184 326.886 108.229L326.955 106.23C325.652 106.186 324.341 106.137 323.021 106.085L322.942 108.084ZM330.913 108.356C332.246 108.394 333.569 108.429 334.884 108.459L334.93 106.46C333.619 106.429 332.3 106.395 330.971 106.357L330.913 108.356ZM338.798 108.538C340.126 108.561 341.445 108.58 342.753 108.595L342.776 106.595C341.472 106.581 340.157 106.562 338.833 106.539L338.798 108.538ZM346.779 108.628C348.111 108.635 349.432 108.637 350.743 108.636L350.74 106.636C349.434 106.637 348.117 106.635 346.789 106.628L346.779 108.628ZM354.643 108.617C355.989 108.606 357.324 108.591 358.647 108.571L358.616 106.571C357.298 106.591 355.968 106.606 354.627 106.617L354.643 108.617ZM362.653 108.496C363.977 108.466 365.289 108.432 366.589 108.393L366.529 106.394C365.234 106.433 363.927 106.467 362.608 106.496L362.653 108.496ZM370.501 108.26C371.861 108.209 373.208 108.152 374.542 108.091L374.45 106.093C373.122 106.154 371.78 106.211 370.426 106.262L370.501 108.26ZM378.503 107.89C379.81 107.818 381.104 107.741 382.385 107.66L382.257 105.664C380.983 105.745 379.695 105.822 378.393 105.893L378.503 107.89ZM386.418 107.382C387.757 107.283 389.081 107.179 390.39 107.069L390.222 105.076C388.92 105.185 387.603 105.289 386.271 105.387L386.418 107.382ZM394.271 106.723C395.625 106.594 396.962 106.46 398.282 106.32L398.071 104.331C396.758 104.471 395.429 104.604 394.083 104.731L394.271 106.723ZM402.242 105.875C403.545 105.721 404.831 105.561 406.099 105.394L405.839 103.411C404.579 103.576 403.302 103.736 402.007 103.889L402.242 105.875ZM410.118 104.838C411.444 104.645 412.75 104.445 414.037 104.239L413.719 102.264C412.443 102.469 411.147 102.667 409.83 102.859L410.118 104.838ZM417.917 103.584C419.263 103.346 420.587 103.101 421.887 102.847L421.504 100.884C420.216 101.135 418.904 101.379 417.569 101.615L417.917 103.584ZM425.718 102.064C427.058 101.777 428.372 101.482 429.66 101.178L429.2 99.2316C427.927 99.5321 426.627 99.8244 425.3 100.109L425.718 102.064ZM433.502 100.227C434.816 99.8853 436.1 99.5347 437.355 99.1751L436.804 97.2525C435.566 97.6074 434.298 97.9536 433 98.2908L433.502 100.227ZM441.176 98.0229C442.47 97.6124 443.73 97.1914 444.955 96.7603L444.291 94.8738C443.086 95.2977 441.847 95.712 440.571 96.1165L441.176 98.0229ZM448.702 95.3673C449.978 94.8659 451.213 94.3523 452.405 93.8268L451.598 91.9968C450.432 92.5108 449.223 93.0139 447.971 93.5057L448.702 95.3673ZM455.997 92.1428C457.247 91.5198 458.442 90.8819 459.583 90.2294L458.59 88.4932C457.484 89.1258 456.322 89.7459 455.105 90.3529L455.997 92.1428ZM462.983 88.1369C464.14 87.3687 465.229 86.5823 466.25 85.7784L465.012 84.2072C464.037 84.9755 462.992 85.7304 461.877 86.4706L462.983 88.1369ZM469.335 83.096C470.348 82.1186 471.269 81.1179 472.097 80.0948L470.542 78.8367C469.769 79.7919 468.904 80.7324 467.946 81.6568L469.335 83.096ZM474.435 76.735C475.148 75.5218 475.739 74.2819 476.209 73.0176L474.334 72.3211C473.907 73.4711 473.367 74.6053 472.711 75.722L474.435 76.735ZM477.274 69.0185C477.497 67.6596 477.588 66.2812 477.547 64.8865L475.548 64.945C475.585 66.2138 475.503 67.4638 475.3 68.6938L477.274 69.0185ZM477.058 60.7843C476.786 59.4733 476.404 58.153 475.914 56.8252L474.038 57.5177C474.496 58.7581 474.849 59.9827 475.099 61.1902L477.058 60.7843ZM474.268 53.1042C473.673 51.9476 472.998 50.7863 472.245 49.6212L470.566 50.7068C471.285 51.8205 471.927 52.925 472.49 54.0193L474.268 53.1042ZM469.914 46.3261C469.111 45.2806 468.246 44.2323 467.319 43.1819L465.82 44.5051C466.718 45.5236 467.555 46.5369 468.328 47.5443L469.914 46.3261ZM464.609 40.2818C464.131 39.7976 463.641 39.313 463.137 38.828L461.75 40.2689C462.241 40.7422 462.72 41.2148 463.185 41.6865L464.609 40.2818ZM463.137 38.828C462.642 38.3516 462.148 37.8801 461.654 37.4135L460.28 38.8674C460.77 39.3297 461.259 39.7968 461.75 40.2689L463.137 38.828ZM458.695 34.6723C457.711 33.778 456.729 32.903 455.748 32.047L454.433 33.5537C455.403 34.4008 456.376 35.267 457.35 36.1525L458.695 34.6723ZM452.8 29.5255C451.747 28.6443 450.698 27.785 449.65 26.9473L448.401 28.5093C449.436 29.3374 450.475 30.1872 451.516 31.0588L452.8 29.5255ZM446.515 24.4988C445.472 23.7041 444.432 22.9307 443.395 22.1783L442.221 23.7974C443.245 24.5403 444.272 25.3042 445.302 26.0894L446.515 24.4988ZM440.088 19.8454C438.979 19.084 437.872 18.3466 436.768 17.6328L435.682 19.3122C436.77 20.016 437.862 20.7434 438.957 21.4946L440.088 19.8454ZM433.467 15.5622C432.299 14.8522 431.135 14.1687 429.974 13.5111L428.988 15.2512C430.131 15.8985 431.277 16.5717 432.428 17.2712L433.467 15.5622ZM426.48 11.6025C425.309 10.9873 424.143 10.3984 422.981 9.83551L422.109 11.6354C423.251 12.1887 424.398 12.7677 425.549 13.3728L426.48 11.6025ZM419.302 8.13323C418.081 7.59454 416.865 7.08441 415.654 6.60232L414.914 8.4605C416.102 8.93346 417.296 9.43414 418.495 9.96311L419.302 8.13323ZM411.918 5.19756C410.643 4.74635 409.374 4.32617 408.111 3.93638L407.521 5.84738C408.758 6.22908 410.001 6.64071 411.25 7.08296L411.918 5.19756ZM404.325 2.85277C403.006 2.50525 401.694 2.19086 400.391 1.90886L399.968 3.86367C401.242 4.13932 402.525 4.44674 403.815 4.78674L404.325 2.85277ZM396.501 1.15927C395.166 0.933358 393.839 0.74143 392.52 0.582647L392.281 2.5683C393.568 2.72326 394.863 2.91062 396.168 3.13126L396.501 1.15927ZM388.551 0.202044C387.208 0.106399 385.875 0.0451528 384.552 0.017369L384.51 2.01693C385.8 2.04401 387.099 2.10371 388.409 2.19699L388.551 0.202044ZM380.55 0.0353535C379.209 0.0757622 377.879 0.15061 376.561 0.258864L376.724 2.25216C378.009 2.14673 379.304 2.07381 380.61 2.03445L380.55 0.0353535ZM372.576 0.691334C371.249 0.870651 369.934 1.0839 368.632 1.32995L369.003 3.29517C370.271 3.05558 371.551 2.84793 372.843 2.67331L372.576 0.691334ZM364.714 2.17763C363.415 2.49457 362.129 2.84431 360.857 3.22564L361.432 5.14138C362.671 4.76992 363.923 4.42929 365.188 4.12064L364.714 2.17763ZM357.051 4.47508C355.793 4.92409 354.549 5.40418 353.321 5.91413L354.088 7.76129C355.285 7.26414 356.497 6.79621 357.723 6.35867L357.051 4.47508ZM349.663 7.54069C348.458 8.11281 347.268 8.71386 346.095 9.3426L347.039 11.1056C348.185 10.492 349.345 9.90551 350.521 9.34745L349.663 7.54069ZM342.615 11.3145C341.471 11.9987 340.344 12.7094 339.233 13.4453L340.338 15.1125C341.424 14.3933 342.525 13.699 343.642 13.0308L342.615 11.3145ZM335.953 15.7274C334.877 16.5119 333.818 17.3203 332.777 18.1514L334.024 19.7146C335.043 18.9013 336.079 18.1105 337.131 17.3434L335.953 15.7274ZM329.709 20.7086C328.705 21.5819 327.719 22.4765 326.75 23.3912L328.124 24.8449C329.072 23.9488 330.038 23.0727 331.021 22.2176L329.709 20.7086ZM323.905 26.1904C322.975 27.1418 322.064 28.112 321.172 29.0997L322.656 30.4405C323.531 29.4718 324.424 28.5206 325.335 27.588L323.905 26.1904ZM318.554 32.1109C317.7 33.131 316.866 34.1673 316.051 35.2187L317.632 36.444C318.432 35.412 319.25 34.3951 320.088 33.3942L318.554 32.1109ZM313.666 38.4156C312.89 39.496 312.134 40.5903 311.398 41.6972L313.063 42.8046C313.786 41.7175 314.529 40.643 315.29 39.5822L313.666 38.4156ZM309.249 45.0566C308.552 46.1902 307.876 47.3352 307.22 48.4905L308.96 49.4774C309.604 48.3425 310.268 47.2176 310.953 46.1042L309.249 45.0566ZM305.314 51.9924C304.698 53.1728 304.103 54.3624 303.53 55.5599L305.335 56.4229C305.897 55.2464 306.481 54.0776 307.087 52.9178L305.314 51.9924ZM301.873 59.1862C301.341 60.408 300.831 61.6366 300.344 62.8707L302.204 63.6048C302.682 62.3926 303.183 61.1857 303.707 59.9854L301.873 59.1862ZM298.946 66.6044C298.501 67.8625 298.079 69.1251 297.682 70.3907L299.591 70.9895C299.98 69.747 300.394 68.5073 300.832 67.2718L298.946 66.6044ZM296.559 74.2149C296.206 75.5046 295.879 76.7962 295.577 78.0882L297.525 78.5427C297.821 77.2756 298.142 76.0085 298.488 74.7429L296.559 74.2149ZM294.747 81.9846C294.493 83.3008 294.267 84.6161 294.069 85.929L296.046 86.2278C296.241 84.9419 296.462 83.6532 296.711 82.3631L294.747 81.9846ZM293.556 89.8764C293.411 91.213 293.295 92.5457 293.21 93.8728L295.206 94.0011C295.289 92.7038 295.402 91.4003 295.544 90.0924L293.556 89.8764ZM293.045 97.8506C293.02 99.1976 293.027 100.537 293.067 101.868L295.066 101.807C295.027 100.51 295.02 99.2028 295.044 97.8875L293.045 97.8506ZM293.289 105.856C293.398 107.197 293.542 108.527 293.722 109.844L295.703 109.574C295.529 108.294 295.388 107 295.282 105.694L293.289 105.856ZM294.377 113.8C294.635 115.118 294.931 116.42 295.265 117.705L297.201 117.201C296.877 115.957 296.59 114.695 296.34 113.416L294.377 113.8ZM296.405 121.567C296.827 122.841 297.291 124.096 297.796 125.328L299.646 124.569C299.159 123.381 298.712 122.17 298.303 120.937L296.405 121.567ZM299.459 128.999C299.758 129.598 300.068 130.191 300.389 130.778L302.144 129.819C301.835 129.254 301.537 128.684 301.249 128.106L299.459 128.999ZM300.389 130.778C300.71 131.366 301.023 131.947 301.327 132.518L303.093 131.58C302.785 131.001 302.469 130.414 302.144 129.819L300.389 130.778ZM303.042 135.85C303.639 137.047 304.192 138.205 304.705 139.323L306.523 138.49C306.001 137.351 305.438 136.174 304.833 134.958L303.042 135.85ZM306.215 142.792C306.717 144.011 307.164 145.177 307.559 146.293L309.444 145.625C309.037 144.476 308.578 143.279 308.065 142.031L306.215 142.792ZM308.696 149.858C309.06 151.153 309.343 152.365 309.552 153.5L311.519 153.139C311.298 151.937 311.001 150.664 310.622 149.316L308.696 149.858ZM309.987 157.18C310.046 158.515 309.975 159.703 309.795 160.758L311.766 161.094C311.974 159.881 312.05 158.549 311.986 157.092L309.987 157.18ZM308.685 164.057C308.112 165.099 307.369 165.946 306.486 166.632L307.714 168.211C308.804 167.364 309.729 166.309 310.437 165.021L308.685 164.057ZM303.408 168.249C302.329 168.618 301.146 168.868 299.884 169.015L300.114 171.001C301.49 170.842 302.817 170.565 304.055 170.142L303.408 168.249ZM296.195 169.169C294.977 169.142 293.727 169.047 292.467 168.899L292.233 170.885C293.546 171.039 294.86 171.14 296.151 171.169L296.195 169.169ZM288.751 168.323C287.498 168.086 286.26 167.812 285.059 167.516L284.581 169.458C285.812 169.762 287.086 170.044 288.38 170.289L288.751 168.323ZM281.411 166.528C280.104 166.143 278.887 165.752 277.798 165.382L277.156 167.277C278.267 167.653 279.51 168.052 280.845 168.446L281.411 166.528ZM274.222 164.09C273.671 163.878 273.239 163.705 272.946 163.585C272.8 163.525 272.688 163.479 272.613 163.448C272.576 163.432 272.548 163.42 272.529 163.412C272.52 163.408 272.513 163.406 272.509 163.404C272.507 163.403 272.505 163.402 272.504 163.402C272.504 163.402 272.504 163.401 272.503 163.401C272.503 163.401 272.503 163.401 272.503 163.401C272.503 163.401 272.503 163.401 272.503 163.401C272.503 163.401 272.503 163.401 272.503 163.401C272.503 163.401 272.503 163.401 272.109 164.32C271.716 165.24 271.716 165.24 271.716 165.24C271.716 165.24 271.716 165.24 271.716 165.24C271.716 165.24 271.716 165.24 271.716 165.24C271.716 165.24 271.716 165.24 271.716 165.24C271.717 165.24 271.718 165.24 271.718 165.241C271.72 165.241 271.722 165.242 271.725 165.244C271.73 165.246 271.738 165.249 271.749 165.254C271.77 165.263 271.8 165.276 271.84 165.292C271.92 165.326 272.038 165.375 272.19 165.437C272.495 165.561 272.939 165.739 273.503 165.957L274.222 164.09Z" fill="#CC70F7"/>
</svg>
