<svg width="161" height="40" viewBox="0 0 161 40" fill="none" xmlns="http://www.w3.org/2000/svg">
<path d="M0 29.9999L3.1522e-06 10L9.93598 15.5556V24.4999L17.8848 28.9999L25.8336 24.4999V15.5556L35.7697 10V29.9999L17.8848 39.9999L0 29.9999Z" fill="#6DAC55"/>
<path fill-rule="evenodd" clip-rule="evenodd" d="M4.96801 12.7778L0 9.99998L17.8848 0L35.7697 9.99998L30.8016 12.7778V27.4999L17.8848 34.9999L4.968 27.4999L4.96801 12.7778ZM30.2635 13.0787L25.8336 15.5555V15.5L17.8848 10.9999L9.93598 15.5V15.5555L5.5062 13.0787V27.1923L17.8848 34.3797L30.2635 27.1923V13.0787Z" fill="#206FA5"/>
<path d="M45.3 28.4203V11.6204H48.4478V25.5403H56.0787V28.4203H45.3Z" fill="#666666"/>
<path d="M62.8687 28.7556C61.6924 28.7556 60.6352 28.5157 59.6972 28.0356C58.7593 27.5556 58.02 26.8596 57.4795 25.9477C56.9389 25.0357 56.6687 23.9397 56.6687 22.6597V22.2756C56.6687 20.9957 56.9389 19.8996 57.4795 18.9877C58.02 18.0757 58.7593 17.3797 59.6972 16.8997C60.6352 16.4196 61.6924 16.1797 62.8687 16.1797C64.0452 16.1797 65.1024 16.4196 66.0404 16.8997C66.9783 17.3797 67.7176 18.0757 68.2581 18.9877C68.7986 19.8996 69.0689 20.9957 69.0689 22.2756V22.6597C69.0689 23.9397 68.7986 25.0357 68.2581 25.9477C67.7176 26.8596 66.9783 27.5556 66.0404 28.0356C65.1024 28.5157 64.0452 28.7556 62.8687 28.7556ZM62.8687 26.0676C63.7909 26.0676 64.554 25.7717 65.158 25.1796C65.7622 24.5717 66.0642 23.7076 66.0642 22.5876V22.3477C66.0642 21.2277 65.7622 20.3716 65.158 19.7797C64.5699 19.1717 63.8067 18.8677 62.8687 18.8677C61.9467 18.8677 61.1836 19.1717 60.5796 19.7797C59.9754 20.3716 59.6734 21.2277 59.6734 22.3477V22.5876C59.6734 23.7076 59.9754 24.5717 60.5796 25.1796C61.1836 25.7717 61.9467 26.0676 62.8687 26.0676Z" fill="#666666"/>
<path d="M70.2 22.5157V22.1317C70.2 20.8837 70.4463 19.8197 70.9392 18.9397C71.432 18.0437 72.0838 17.3636 72.8946 16.8997C73.7213 16.4196 74.6195 16.1797 75.5892 16.1797C76.6702 16.1797 77.489 16.3717 78.0454 16.7557C78.6018 17.1397 79.0072 17.5397 79.2615 17.9557H79.6908V16.5156H82.6477V30.5317C82.6477 31.3476 82.4092 31.9956 81.9323 32.4757C81.4554 32.9716 80.8195 33.2197 80.0246 33.2197H72.1076V30.5797H78.9754C79.4205 30.5797 79.6431 30.3396 79.6431 29.8596V26.7636H79.2138C79.0548 27.0196 78.8323 27.2836 78.5462 27.5556C78.26 27.8116 77.8785 28.0276 77.4015 28.2037C76.9246 28.3797 76.3205 28.4677 75.5892 28.4677C74.6195 28.4677 73.7213 28.2356 72.8946 27.7716C72.0838 27.2916 71.432 26.6116 70.9392 25.7317C70.4463 24.8357 70.2 23.7637 70.2 22.5157ZM76.4477 25.8277C77.3697 25.8277 78.1408 25.5317 78.7608 24.9397C79.3808 24.3477 79.6908 23.5157 79.6908 22.4437V22.2037C79.6908 21.1156 79.3808 20.2837 78.7608 19.7077C78.1566 19.1157 77.3857 18.8197 76.4477 18.8197C75.5256 18.8197 74.7545 19.1157 74.1346 19.7077C73.5146 20.2837 73.2046 21.1156 73.2046 22.2037V22.4437C73.2046 23.5157 73.5146 24.3477 74.1346 24.9397C74.7545 25.5317 75.5256 25.8277 76.4477 25.8277Z" fill="#666666"/>
<path d="M90.5313 28.7556C89.3549 28.7556 88.2977 28.5157 87.3597 28.0356C86.4217 27.5556 85.6825 26.8596 85.142 25.9477C84.6015 25.0357 84.3313 23.9397 84.3313 22.6597V22.2756C84.3313 20.9957 84.6015 19.8996 85.142 18.9877C85.6825 18.0757 86.4217 17.3797 87.3597 16.8997C88.2977 16.4196 89.3549 16.1797 90.5313 16.1797C91.7077 16.1797 92.7649 16.4196 93.7029 16.8997C94.6408 17.3797 95.3801 18.0757 95.9206 18.9877C96.4612 19.8996 96.7314 20.9957 96.7314 22.2756V22.6597C96.7314 23.9397 96.4612 25.0357 95.9206 25.9477C95.3801 26.8596 94.6408 27.5556 93.7029 28.0356C92.7649 28.5157 91.7077 28.7556 90.5313 28.7556ZM90.5313 26.0676C91.4533 26.0676 92.2165 25.7717 92.8205 25.1796C93.4247 24.5717 93.7268 23.7076 93.7268 22.5876V22.3477C93.7268 21.2277 93.4247 20.3716 92.8205 19.7797C92.2323 19.1717 91.4693 18.8677 90.5313 18.8677C89.6092 18.8677 88.8462 19.1717 88.242 19.7797C87.638 20.3716 87.3359 21.2277 87.3359 22.3477V22.5876C87.3359 23.7076 87.638 24.5717 88.242 25.1796C88.8462 25.7717 89.6092 26.0676 90.5313 26.0676Z" fill="#666666"/>
<path d="M98.4292 28.4204V16.5164H101.434V28.4204H98.4292ZM99.9315 15.1244C99.391 15.1244 98.9299 14.9485 98.5484 14.5964C98.1828 14.2444 98 13.7804 98 13.2045C98 12.6285 98.1828 12.1645 98.5484 11.8124C98.9299 11.4605 99.391 11.2844 99.9315 11.2844C100.488 11.2844 100.949 11.4605 101.315 11.8124C101.68 12.1645 101.863 12.6285 101.863 13.2045C101.863 13.7804 101.68 14.2444 101.315 14.5964C100.949 14.9485 100.488 15.1244 99.9315 15.1244Z" fill="#666666"/>
<path d="M103.7 33.2197V16.5156H106.657V17.9557H107.087C107.356 17.4917 107.777 17.0837 108.35 16.7316C108.923 16.3636 109.741 16.1797 110.806 16.1797C111.76 16.1797 112.643 16.4196 113.453 16.8997C114.264 17.3636 114.916 18.0516 115.409 18.9637C115.901 19.8757 116.148 20.9797 116.148 22.2756V22.6597C116.148 23.9556 115.901 25.0596 115.409 25.9716C114.916 26.8837 114.264 27.5797 113.453 28.0597C112.643 28.5237 111.76 28.7556 110.806 28.7556C110.09 28.7556 109.486 28.6676 108.994 28.4916C108.517 28.3316 108.127 28.1236 107.826 27.8676C107.539 27.5956 107.309 27.3237 107.134 27.0517H106.705V33.2197H103.7ZM109.9 26.1156C110.838 26.1156 111.609 25.8196 112.213 25.2276C112.833 24.6197 113.143 23.7396 113.143 22.5876V22.3477C113.143 21.1957 112.833 20.3236 112.213 19.7316C111.593 19.1237 110.822 18.8197 109.9 18.8197C108.978 18.8197 108.207 19.1237 107.587 19.7316C106.967 20.3236 106.657 21.1957 106.657 22.3477V22.5876C106.657 23.7396 106.967 24.6197 107.587 25.2276C108.207 25.8196 108.978 26.1156 109.9 26.1156Z" fill="#666666"/>
<path d="M122.737 28.7556C121.195 28.7556 119.931 28.4197 118.945 27.7477C117.96 27.0756 117.364 26.1156 117.156 24.8676L119.923 24.1477C120.034 24.7076 120.217 25.1477 120.471 25.4677C120.742 25.7877 121.068 26.0196 121.449 26.1637C121.846 26.2916 122.276 26.3557 122.737 26.3557C123.436 26.3557 123.953 26.2356 124.287 25.9957C124.62 25.7397 124.788 25.4276 124.788 25.0596C124.788 24.6916 124.629 24.4117 124.311 24.2196C123.993 24.0116 123.484 23.8437 122.784 23.7157L122.117 23.5956C121.29 23.4356 120.535 23.2196 119.851 22.9477C119.168 22.6597 118.619 22.2676 118.205 21.7717C117.793 21.2756 117.586 20.6356 117.586 19.8516C117.586 18.6677 118.015 17.7637 118.874 17.1397C119.732 16.4997 120.861 16.1797 122.26 16.1797C123.58 16.1797 124.677 16.4757 125.55 17.0677C126.425 17.6597 126.997 18.4357 127.268 19.3957L124.478 20.2596C124.351 19.6517 124.088 19.2196 123.691 18.9637C123.309 18.7077 122.832 18.5796 122.26 18.5796C121.687 18.5796 121.251 18.6836 120.948 18.8916C120.647 19.0837 120.495 19.3557 120.495 19.7077C120.495 20.0917 120.654 20.3796 120.972 20.5717C121.29 20.7476 121.719 20.8837 122.26 20.9797L122.927 21.0997C123.818 21.2597 124.62 21.4756 125.337 21.7476C126.067 22.0036 126.64 22.3796 127.053 22.8757C127.483 23.3557 127.697 24.0116 127.697 24.8437C127.697 26.0917 127.244 27.0597 126.337 27.7477C125.448 28.4197 124.247 28.7556 122.737 28.7556Z" fill="#666666"/>
<path d="M133.758 28.6093C132.837 28.6093 132.026 28.4013 131.327 27.9854C130.643 27.5533 130.11 26.9613 129.728 26.2093C129.348 25.4574 129.156 24.5933 129.156 23.6173V16.5133H132.161V23.3773C132.161 24.2733 132.376 24.9453 132.805 25.3933C133.25 25.8413 133.878 26.0653 134.689 26.0653C135.61 26.0653 136.326 25.7613 136.835 25.1533C137.344 24.5293 137.598 23.6653 137.598 22.5613V16.5133H140.603V28.4173H137.645V26.8573H137.217C137.026 27.2573 136.668 27.6493 136.143 28.0333C135.619 28.4173 134.823 28.6093 133.758 28.6093Z" fill="#666666"/>
<path d="M142.888 28.4195V16.5154H145.844V17.8115H146.273C146.479 17.4114 146.822 17.0675 147.298 16.7794C147.775 16.4755 148.403 16.3235 149.183 16.3235C150.025 16.3235 150.701 16.4915 151.21 16.8274C151.718 17.1474 152.108 17.5714 152.378 18.0994H152.807C153.077 17.5875 153.459 17.1635 153.952 16.8274C154.445 16.4915 155.144 16.3235 156.051 16.3235C156.781 16.3235 157.442 16.4835 158.03 16.8035C158.634 17.1074 159.111 17.5794 159.461 18.2195C159.826 18.8434 160.009 19.6354 160.009 20.5955V28.4195H157.004V20.8115C157.004 20.1554 156.838 19.6674 156.503 19.3475C156.169 19.0115 155.701 18.8434 155.097 18.8434C154.413 18.8434 153.88 19.0675 153.498 19.5154C153.133 19.9474 152.95 20.5714 152.95 21.3875V28.4195H149.946V20.8115C149.946 20.1554 149.778 19.6674 149.445 19.3475C149.111 19.0115 148.642 18.8434 148.037 18.8434C147.354 18.8434 146.822 19.0675 146.44 19.5154C146.074 19.9474 145.891 20.5714 145.891 21.3875V28.4195H142.888Z" fill="#666666"/>
</svg>
