<svg width="207" height="40" viewBox="0 0 207 40" fill="none" xmlns="http://www.w3.org/2000/svg">
<path d="M62.088 31.2473V10.2478H66.0552V27.6474H75.6729V31.2473H62.088Z" fill="#051B1D"/>
<path d="M84.2462 31.6682C82.7635 31.6682 81.431 31.3682 80.2489 30.7682C79.0666 30.1683 78.1349 29.2983 77.4537 28.1583C76.7725 27.0184 76.4319 25.6484 76.4319 24.0484V23.5684C76.4319 21.9684 76.7725 20.5985 77.4537 19.4585C78.1349 18.3185 79.0666 17.4485 80.2489 16.8485C81.431 16.2486 82.7635 15.9486 84.2462 15.9486C85.7289 15.9486 87.0614 16.2486 88.2436 16.8485C89.4257 17.4485 90.3574 18.3185 91.0387 19.4585C91.72 20.5985 92.0606 21.9684 92.0606 23.5684V24.0484C92.0606 25.6484 91.72 27.0184 91.0387 28.1583C90.3574 29.2983 89.4257 30.1683 88.2436 30.7682C87.0614 31.3682 85.7289 31.6682 84.2462 31.6682ZM84.2462 28.3083C85.4083 28.3083 86.3701 27.9382 87.1316 27.1983C87.8929 26.4383 88.2736 25.3583 88.2736 23.9584V23.6584C88.2736 22.2584 87.8929 21.1884 87.1316 20.4484C86.3901 19.6885 85.4284 19.3084 84.2462 19.3084C83.0841 19.3084 82.1223 19.6885 81.3609 20.4484C80.5995 21.1884 80.2188 22.2584 80.2188 23.6584V23.9584C80.2188 25.3583 80.5995 26.4383 81.3609 27.1983C82.1223 27.9382 83.0841 28.3083 84.2462 28.3083Z" fill="#051B1D"/>
<path d="M93.4945 23.8684V23.3884C93.4945 21.8284 93.805 20.4984 94.4262 19.3984C95.0473 18.2786 95.8688 17.4286 96.8907 16.8485C97.9327 16.2486 99.0647 15.9486 100.287 15.9486C101.649 15.9486 102.681 16.1885 103.383 16.6685C104.084 17.1485 104.595 17.6485 104.915 18.1685H105.457V16.3685H109.183V33.8881C109.183 34.9081 108.883 35.718 108.282 36.3181C107.681 36.9381 106.879 37.248 105.877 37.248H95.8989V33.9481H104.555C105.116 33.9481 105.396 33.6481 105.396 33.0481V29.1783H104.855C104.655 29.4983 104.374 29.8282 104.014 30.1683C103.653 30.4881 103.172 30.7582 102.571 30.9782C101.97 31.1981 101.209 31.3083 100.287 31.3083C99.0647 31.3083 97.9327 31.0182 96.8907 30.4383C95.8688 29.8382 95.0473 28.9882 94.4262 27.8882C93.805 26.7684 93.4945 25.4283 93.4945 23.8684ZM101.369 28.0083C102.531 28.0083 103.503 27.6382 104.284 26.8983C105.066 26.1583 105.457 25.1184 105.457 23.7784V23.4784C105.457 22.1184 105.066 21.0785 104.284 20.3584C103.523 19.6185 102.551 19.2485 101.369 19.2485C100.207 19.2485 99.2351 19.6185 98.4536 20.3584C97.6722 21.0785 97.2814 22.1184 97.2814 23.4784V23.7784C97.2814 25.1184 97.6722 26.1583 98.4536 26.8983C99.2351 27.6382 100.207 28.0083 101.369 28.0083Z" fill="#051B1D"/>
<path d="M119.109 31.6682C117.626 31.6682 116.294 31.3682 115.112 30.7682C113.93 30.1683 112.998 29.2983 112.317 28.1583C111.635 27.0184 111.295 25.6484 111.295 24.0484V23.5684C111.295 21.9684 111.635 20.5985 112.317 19.4585C112.998 18.3185 113.93 17.4485 115.112 16.8485C116.294 16.2486 117.626 15.9486 119.109 15.9486C120.592 15.9486 121.924 16.2486 123.106 16.8485C124.289 17.4485 125.22 18.3185 125.902 19.4585C126.583 20.5985 126.923 21.9684 126.923 23.5684V24.0484C126.923 25.6484 126.583 27.0184 125.902 28.1583C125.22 29.2983 124.289 30.1683 123.106 30.7682C121.924 31.3682 120.592 31.6682 119.109 31.6682ZM119.109 28.3083C120.271 28.3083 121.233 27.9382 121.994 27.1983C122.756 26.4383 123.136 25.3583 123.136 23.9584V23.6584C123.136 22.2584 122.756 21.1884 121.994 20.4484C121.253 19.6885 120.291 19.3084 119.109 19.3084C117.947 19.3084 116.985 19.6885 116.224 20.4484C115.462 21.1884 115.082 22.2584 115.082 23.6584V23.9584C115.082 25.3583 115.462 26.4383 116.224 27.1983C116.985 27.9382 117.947 28.3083 119.109 28.3083Z" fill="#051B1D"/>
<path d="M129.067 31.2507V16.3711H132.854V31.2507H129.067ZM130.961 14.6312C130.279 14.6312 129.699 14.4112 129.217 13.9711C128.757 13.5312 128.526 12.9512 128.526 12.2312C128.526 11.5113 128.757 10.9313 129.217 10.4913C129.699 10.0513 130.279 9.8313 130.961 9.8313C131.662 9.8313 132.243 10.0513 132.703 10.4913C133.164 10.9313 133.396 11.5113 133.396 12.2312C133.396 12.9512 133.164 13.5312 132.703 13.9711C132.243 14.4112 131.662 14.6312 130.961 14.6312Z" fill="#051B1D"/>
<path d="M135.689 37.248V16.3685H139.415V18.1685H139.956C140.296 17.5886 140.827 17.0785 141.549 16.6385C142.27 16.1786 143.302 15.9486 144.645 15.9486C145.846 15.9486 146.959 16.2486 147.98 16.8485C149.003 17.4286 149.825 18.2885 150.445 19.4285C151.066 20.5684 151.377 21.9485 151.377 23.5684V24.0484C151.377 25.6684 151.066 27.0483 150.445 28.1882C149.825 29.3282 149.003 30.1982 147.98 30.7982C146.959 31.3781 145.846 31.6682 144.645 31.6682C143.744 31.6682 142.981 31.5582 142.36 31.3382C141.76 31.1382 141.269 30.8782 140.888 30.5582C140.527 30.2182 140.237 29.8782 140.016 29.5382H139.475V37.248H135.689ZM143.502 28.3682C144.685 28.3682 145.657 27.9983 146.417 27.2583C147.199 26.4983 147.59 25.3984 147.59 23.9584V23.6584C147.59 22.2184 147.199 21.1285 146.417 20.3884C145.636 19.6284 144.665 19.2485 143.502 19.2485C142.341 19.2485 141.368 19.6284 140.587 20.3884C139.805 21.1285 139.415 22.2184 139.415 23.6584V23.9584C139.415 25.3984 139.805 26.4983 140.587 27.2583C141.368 27.9983 142.341 28.3682 143.502 28.3682Z" fill="#051B1D"/>
<path d="M159.703 31.6682C157.759 31.6682 156.167 31.2482 154.924 30.4082C153.683 29.5683 152.931 28.3682 152.67 26.8083L156.156 25.9083C156.297 26.6084 156.527 27.1582 156.849 27.5583C157.188 27.9582 157.599 28.2483 158.081 28.4283C158.581 28.5883 159.122 28.6682 159.703 28.6682C160.585 28.6682 161.236 28.5183 161.656 28.2183C162.077 27.8983 162.288 27.5083 162.288 27.0483C162.288 26.5883 162.088 26.2383 161.687 25.9983C161.285 25.7384 160.645 25.5284 159.764 25.3684L158.922 25.2183C157.879 25.0183 156.929 24.7483 156.067 24.4084C155.204 24.0484 154.513 23.5584 153.993 22.9384C153.472 22.3185 153.211 21.5185 153.211 20.5385C153.211 19.0584 153.752 17.9285 154.835 17.1485C155.916 16.3485 157.339 15.9486 159.103 15.9486C160.765 15.9486 162.148 16.3185 163.25 17.0585C164.352 17.7986 165.073 18.7685 165.414 19.9685L161.898 21.0484C161.738 20.2885 161.407 19.7485 160.906 19.4285C160.424 19.1085 159.823 18.9485 159.103 18.9485C158.381 18.9485 157.83 19.0786 157.449 19.3385C157.068 19.5785 156.878 19.9185 156.878 20.3584C156.878 20.8384 157.079 21.1985 157.479 21.4384C157.879 21.6584 158.421 21.8284 159.103 21.9485L159.943 22.0984C161.066 22.2984 162.077 22.5685 162.979 22.9084C163.901 23.2284 164.622 23.6984 165.144 24.3184C165.684 24.9184 165.955 25.7384 165.955 26.7783C165.955 28.3383 165.384 29.5483 164.242 30.4082C163.12 31.2482 161.607 31.6682 159.703 31.6682Z" fill="#051B1D"/>
<path d="M173.596 31.4902C172.434 31.4902 171.412 31.2301 170.53 30.7102C169.668 30.1702 168.998 29.4302 168.516 28.4902C168.035 27.5502 167.795 26.4703 167.795 25.2503V16.3705H171.582V24.9503C171.582 26.0703 171.852 26.9102 172.394 27.4703C172.954 28.0302 173.746 28.3102 174.768 28.3102C175.93 28.3102 176.832 27.9303 177.472 27.1703C178.114 26.3903 178.435 25.3102 178.435 23.9303V16.3705H182.222V31.2501H178.494V29.3003H177.954C177.714 29.8002 177.262 30.2901 176.602 30.7701C175.94 31.2501 174.938 31.4902 173.596 31.4902Z" fill="#051B1D"/>
<path d="M185.089 31.2502V16.3705H188.816V17.9905H189.357C189.618 17.4905 190.049 17.0606 190.65 16.7006C191.25 16.3205 192.042 16.1306 193.024 16.1306C194.086 16.1306 194.938 16.3406 195.579 16.7605C196.219 17.1606 196.71 17.6905 197.051 18.3506H197.592C197.933 17.7106 198.414 17.1806 199.035 16.7605C199.657 16.3406 200.537 16.1306 201.679 16.1306C202.602 16.1306 203.433 16.3306 204.175 16.7306C204.936 17.1106 205.538 17.7006 205.978 18.5005C206.439 19.2805 206.669 20.2704 206.669 21.4705V31.2502H202.882V21.7405C202.882 20.9205 202.671 20.3105 202.252 19.9105C201.83 19.4906 201.239 19.2805 200.478 19.2805C199.617 19.2805 198.945 19.5604 198.464 20.1205C198.003 20.6604 197.773 21.4404 197.773 22.4604V31.2502H193.986V21.7405C193.986 20.9205 193.776 20.3105 193.355 19.9105C192.933 19.4906 192.343 19.2805 191.581 19.2805C190.719 19.2805 190.048 19.5604 189.567 20.1205C189.106 20.6604 188.876 21.4404 188.876 22.4604V31.2502H185.089Z" fill="#051B1D"/>
<path d="M50.0933 20C50.0933 14.6957 47.9822 9.60856 44.2245 5.85785C40.4668 2.10713 35.3702 6.95577e-07 30.056 0C24.7419 -6.95576e-07 19.6453 2.10713 15.8876 5.85785C12.1299 9.60856 10.0188 14.6957 10.0188 20H16.2805C18.3555 20 19.9737 18.2644 20.7337 16.3372C21.2327 15.0719 21.9898 13.9091 22.9718 12.9289C24.8506 11.0535 27.399 9.99997 30.056 9.99997C32.7131 9.99997 35.2615 11.0535 37.1403 12.9289C39.0192 14.8042 40.0746 17.3478 40.0746 20H50.0933Z" fill="#3880ED"/>
<path d="M38.5444 27.6537C39.5514 25.2272 40.0697 22.6265 40.0697 20.0001H50.0873C50.0873 31.0458 41.1163 40 30.05 40C28.317 40 26.6352 39.7804 25.0315 39.3676C25.9389 39.1342 26.8308 38.837 27.7003 38.4776C30.1314 37.4725 32.3403 35.9994 34.2009 34.1422C36.0616 32.285 37.5376 30.0802 38.5444 27.6537Z" fill="#3880ED"/>
<path d="M0 19.9978C-3.76435e-07 22.6243 0.518278 25.225 1.52524 27.6515C2.53221 30.078 4.00814 32.2828 5.86878 34.14C7.7294 35.997 9.9383 37.4703 12.3693 38.4754C14.8003 39.4805 17.4059 39.9978 20.0373 39.9978C22.6685 39.9978 25.2741 39.4805 27.7051 38.4754C30.1362 37.4703 32.3451 35.997 34.2057 34.14C36.0664 32.2828 37.5422 30.078 38.5492 27.6515C39.5562 25.225 40.0745 22.6243 40.0745 19.9978H33.8128C31.7379 19.9978 30.1197 21.7334 29.3596 23.6605C29.3381 23.7154 29.3158 23.7701 29.2932 23.8247C28.7898 25.0379 28.0518 26.1404 27.1214 27.0689C26.1912 27.9974 25.0867 28.7341 23.8712 29.2367C22.6557 29.7392 21.353 29.9978 20.0373 29.9978C18.7216 29.9978 17.4188 29.7392 16.2033 29.2367C14.9878 28.7341 13.8834 27.9974 12.953 27.0689C12.0227 26.1404 11.2847 25.0379 10.7813 23.8247C10.2778 22.6114 10.0186 21.311 10.0186 19.9978H0Z" fill="#3880ED"/>
<path d="M0 20C0 8.95424 8.97095 0 20.0372 0C21.7698 0 23.451 0.219492 25.0546 0.632156C21.6138 1.51691 18.4396 3.30741 15.8843 5.85786C12.1266 9.60853 10.0156 14.6957 10.0156 20H0Z" fill="#3880ED"/>
</svg>
