<svg width="167" height="40" viewBox="0 0 167 40" fill="none" xmlns="http://www.w3.org/2000/svg">
<path d="M48.5812 28.5014H60.5451V24.9014H52.8334V11.3414H48.5812V28.5014Z" fill="#090809"/>
<path d="M67.6335 26.1013C65.9278 26.1013 65.0389 24.6133 65.0389 22.3813C65.0389 20.1493 65.9278 18.6373 67.6335 18.6373C69.3392 18.6373 70.2521 20.1493 70.2521 22.3813C70.2521 24.6133 69.3392 26.1013 67.6335 26.1013ZM67.6575 28.8853C71.6214 28.8853 74.216 26.0773 74.216 22.3813C74.216 18.6853 71.6214 15.8773 67.6575 15.8773C63.7176 15.8773 61.075 18.6853 61.075 22.3813C61.075 26.0773 63.7176 28.8853 67.6575 28.8853Z" fill="#090809"/>
<path d="M81.0702 32.7499C82.896 32.7499 84.5056 32.3419 85.5867 31.3819C86.5716 30.4939 87.2203 29.1499 87.2203 27.3019V16.2139H83.4726V17.5339H83.4245C82.7038 16.5019 81.5987 15.8539 79.9651 15.8539C76.9141 15.8539 74.8 18.3979 74.8 21.9979C74.8 25.7659 77.3705 27.8299 80.1333 27.8299C81.6227 27.8299 82.5597 27.2299 83.2804 26.4139H83.3765V27.6379C83.3765 29.1259 82.6798 29.9899 81.0221 29.9899C79.7249 29.9899 79.0762 29.4379 78.86 28.7899H75.0642C75.4486 31.3579 77.6828 32.7499 81.0702 32.7499ZM81.0462 24.9259C79.5807 24.9259 78.6198 23.7259 78.6198 21.8779C78.6198 20.0059 79.5807 18.8059 81.0462 18.8059C82.6798 18.8059 83.5446 20.1979 83.5446 21.8539C83.5446 23.5819 82.7518 24.9259 81.0462 24.9259Z" fill="#090809"/>
<path d="M94.921 26.1013C93.2153 26.1013 92.3264 24.6133 92.3264 22.3813C92.3264 20.1493 93.2153 18.6373 94.921 18.6373C96.6267 18.6373 97.5396 20.1493 97.5396 22.3813C97.5396 24.6133 96.6267 26.1013 94.921 26.1013ZM94.945 28.8853C98.9089 28.8853 101.504 26.0773 101.504 22.3813C101.504 18.6853 98.9089 15.8773 94.945 15.8773C91.0051 15.8773 88.3625 18.6853 88.3625 22.3813C88.3625 26.0773 91.0051 28.8853 94.945 28.8853Z" fill="#090809"/>
<path d="M102.656 28.5014H106.572V16.2134H102.656V28.5014ZM102.656 14.5094H106.572V11.3414H102.656V14.5094Z" fill="#090809"/>
<path d="M108.269 32.5579H112.185V27.2299H112.233C113.001 28.2619 114.131 28.8859 115.716 28.8859C118.935 28.8859 121.073 26.3419 121.073 22.3579C121.073 18.6619 119.079 15.8539 115.812 15.8539C114.131 15.8539 112.929 16.5979 112.089 17.7019H112.016V16.2139H108.269V32.5579ZM114.707 25.8619C113.025 25.8619 112.064 24.4939 112.064 22.5019C112.064 20.5099 112.929 18.9979 114.635 18.9979C116.317 18.9979 117.109 20.3899 117.109 22.5019C117.109 24.5899 116.197 25.8619 114.707 25.8619Z" fill="#090809"/>
<path d="M127.463 28.8859C130.682 28.8859 133.061 27.4939 133.061 24.8059C133.061 21.6619 130.514 21.1099 128.352 20.7499C126.791 20.4619 125.397 20.3419 125.397 19.4779C125.397 18.7099 126.142 18.3499 127.103 18.3499C128.184 18.3499 128.929 18.6859 129.073 19.7899H132.676C132.484 17.3659 130.61 15.8539 127.127 15.8539C124.22 15.8539 121.818 17.1979 121.818 19.7899C121.818 22.6699 124.1 23.2459 126.238 23.6059C127.872 23.8939 129.361 24.0139 129.361 25.1179C129.361 25.9099 128.616 26.3419 127.439 26.3419C126.142 26.3419 125.325 25.7419 125.181 24.5179H121.481C121.601 27.2299 123.86 28.8859 127.463 28.8859Z" fill="#090809"/>
<path d="M138.368 28.8613C140.074 28.8613 141.155 28.1893 142.044 26.9893H142.116V28.5013H145.863V16.2133H141.948V23.0773C141.948 24.5413 141.131 25.5493 139.785 25.5493C138.536 25.5493 137.936 24.8053 137.936 23.4613V16.2133H134.044V24.2773C134.044 27.0133 135.533 28.8613 138.368 28.8613Z" fill="#090809"/>
<path d="M147.575 28.5019H151.491V21.6139C151.491 20.1499 152.212 19.1179 153.437 19.1179C154.614 19.1179 155.167 19.8859 155.167 21.2059V28.5019H159.082V21.6139C159.082 20.1499 159.779 19.1179 161.028 19.1179C162.205 19.1179 162.758 19.8859 162.758 21.2059V28.5019H166.674V20.5099C166.674 17.7499 165.281 15.8539 162.494 15.8539C160.908 15.8539 159.587 16.5259 158.626 18.0139H158.578C157.953 16.6939 156.728 15.8539 155.118 15.8539C153.341 15.8539 152.164 16.6939 151.395 17.9659H151.323V16.2139H147.575V28.5019Z" fill="#090809"/>
<path fill-rule="evenodd" clip-rule="evenodd" d="M8.56119 3.59787C7.12912 4.59823 5.83414 5.78098 4.70998 7.1124C9.30382 6.68633 15.1401 7.38205 21.916 10.7667C29.1518 14.3809 34.9783 14.5031 39.0334 13.7217C38.6654 12.6088 38.2021 11.5392 37.6535 10.5224C33.0116 11.0115 27.0607 10.3641 20.1255 6.89998C15.7215 4.70018 11.8395 3.79401 8.56119 3.59787ZM34.9419 6.66665C31.2762 2.575 25.949 0 20.0198 0C18.2785 0 16.5891 0.222107 14.9785 0.63948C17.1598 1.23409 19.4771 2.10399 21.916 3.32227C26.9936 5.85853 31.3774 6.67516 34.9419 6.66665ZM39.9003 17.6281C35.0015 18.5945 28.2367 18.396 20.1255 14.3444C12.5424 10.5566 6.50686 10.6043 2.43631 11.508C2.2262 11.5546 2.02104 11.6036 1.82083 11.6546C1.28789 12.8125 0.862487 14.0301 0.557253 15.2945C0.883259 15.2075 1.22014 15.1248 1.56771 15.0476C6.506 13.9513 13.4834 13.9989 21.916 18.2111C29.4992 21.9989 35.5347 21.9512 39.6053 21.0475C39.7448 21.0166 39.8822 20.9846 40.0173 20.9516C40.0321 20.6363 40.0395 20.319 40.0395 20C40.0395 19.1975 39.9923 18.406 39.9003 17.6281ZM39.3637 25.1723C34.5124 26.0196 27.9446 25.6944 20.1255 21.7888C12.5424 18.001 6.50686 18.0487 2.43631 18.9524C1.53277 19.1529 0.719951 19.3972 0.0029329 19.6551C0.000977967 19.7698 0 19.8848 0 20C0 31.0457 8.96315 40 20.0198 40C29.286 40 37.0819 33.7109 39.3637 25.1723Z" fill="#3C5B7E"/>
</svg>
