<svg width="138" height="100" viewBox="0 0 138 100" fill="none" xmlns="http://www.w3.org/2000/svg">
<path id="marks" d="M106.193 0C101.075 0 96.3593 2.89999 94.1519 7.39999L79.9037 35.8C78.499 38.6 77.7966 41.6 77.7966 44.7V90C77.7966 95.5 82.3119 100 87.8305 100H127.966C133.485 100 138 95.5 138 90V50C138 44.5 133.485 40 127.966 40H107.898L118.233 19.4C122.748 10.5 116.226 0 106.193 0ZM28.3959 0C23.2786 0 18.5627 2.89999 16.3552 7.39999L2.1071 35.8C0.702362 38.6 0 41.6 0 44.7V90C0 95.5 4.51526 100 10.0339 100H50.1695C55.6881 100 60.2034 95.5 60.2034 90V50C60.2034 44.5 55.6881 40 50.1695 40H30.1017L40.4366 19.4C44.9519 10.5 38.4298 0 28.3959 0Z" fill="white" fill-opacity="0.5"/>
</svg>
