<svg width="121" height="120" viewBox="0 0 121 120" fill="none" xmlns="http://www.w3.org/2000/svg">
<g id="transfer-icon">
<path id="Vector" d="M101.605 1.25506C100.379 0.0296029 98.5359 -0.336791 96.9345 0.326152C95.3321 0.990051 94.2883 2.55224 94.2883 4.28569V8.57144H68.5739C66.2071 8.57144 64.2881 10.4904 64.2881 12.8572V30.0002C64.2881 32.3669 66.2071 34.2859 68.5739 34.2859H94.2883V38.5717C94.2883 40.3051 95.332 41.8683 96.9345 42.5312C98.5359 43.1951 100.379 42.8278 101.605 41.6023L118.748 24.4593C120.421 22.7852 120.421 20.0722 118.748 18.398L101.605 1.25506Z" fill="#FFA401"/>
<path id="Vector_2" d="M18.3979 78.397C19.6233 77.1716 21.4667 76.8052 23.0681 77.4681C24.6695 78.1311 25.7142 79.6942 25.7142 81.4277V85.7134H51.4287C53.7954 85.7134 55.7145 87.6324 55.7145 89.9992V107.142C55.7145 109.509 53.7954 111.428 51.4287 111.428H25.7142V115.714C25.7142 117.447 24.6696 119.01 23.0681 119.673C21.4667 120.337 19.6233 119.97 18.3979 118.744L1.25487 101.601C-0.418289 99.9272 -0.418289 97.2141 1.25487 95.54L18.3979 78.397Z" fill="#FFA401"/>
<path id="Vector_3" fill-rule="evenodd" clip-rule="evenodd" d="M61.1485 8.57153C60.4186 9.83238 60.0015 11.296 60.0015 12.8573V30.0003C60.0015 34.7347 63.8386 38.5718 68.573 38.5718H90.0017C90.0017 42.0386 92.09 45.164 95.2928 46.4908C98.4956 47.8177 102.183 47.084 104.634 44.6331L111.43 37.8371V98.5722C111.43 105.673 105.674 111.429 98.5732 111.429H58.8553C59.5853 110.169 60.0023 108.705 60.0023 107.144V90.0007C60.0023 85.2673 56.1653 81.4293 51.4309 81.4293H30.0021C30.0021 77.9624 27.9138 74.837 24.7111 73.5102C21.5083 72.1833 17.8213 72.917 15.3694 75.368L8.57339 82.1649V21.4298C8.57339 14.3286 14.3295 8.57251 21.4306 8.57251L61.1485 8.57153ZM77.1444 90.0007C74.7776 90.0007 72.8586 91.9197 72.8586 94.2865C72.8586 96.6532 74.7776 98.5722 77.1444 98.5722H94.2873C96.6541 98.5722 98.5731 96.6532 98.5731 94.2865C98.5731 91.9197 96.6541 90.0007 94.2873 90.0007H77.1444ZM72.8586 81.4292C72.8586 79.0625 74.7776 77.1435 77.1444 77.1435H94.2873C96.6541 77.1435 98.5731 79.0625 98.5731 81.4292C98.5731 83.796 96.6541 85.715 94.2873 85.715H77.1444C74.7776 85.715 72.8586 83.796 72.8586 81.4292Z" fill="#C86CFD"/>
</g>
</svg>
