<svg width="119" height="120" viewBox="0 0 119 120" fill="none" xmlns="http://www.w3.org/2000/svg">
<g id="wallet-icon">
<path id="Vector" d="M113.829 15.3868L12.5718 15.3751C10.6413 15.3751 9.07571 13.8105 9.07571 11.878C9.07571 9.94846 10.6404 8.38388 12.5718 8.38388L100.614 8.37026C102.925 8.37026 104.799 6.49715 104.799 4.18513C104.799 1.87415 102.926 0 100.614 0H9.76447C4.38167 0 0 4.38167 0 9.76447V97.8214C0 100.608 2.25941 102.871 5.05001 102.871H15.7827C22.3273 113.156 33.8191 120 46.8854 120C59.9524 120 71.4442 113.157 77.988 102.872H113.831C116.621 102.872 118.881 100.61 118.881 97.8224L118.88 20.4369C118.88 17.6463 116.621 15.3859 113.83 15.3859L113.829 15.3868ZM46.8829 113.024C30.4111 113.024 17.0108 99.6252 17.0108 83.1545C17.0108 81.9148 17.0886 80.6645 17.2414 79.4384C19.0883 64.5275 31.8322 53.2829 46.8843 53.2829C50.7396 53.2829 54.4886 54.0059 58.0286 55.4285C69.4045 60.0037 76.7559 70.8874 76.7559 83.1533C76.7549 99.6221 63.3551 113.023 46.8838 113.023L46.8829 113.024ZM111.153 49.5085H83.7995C78.6287 49.5085 74.4368 45.3177 74.4368 40.1469C74.4368 34.974 78.6287 30.7822 83.7995 30.7822H111.153V49.5085ZM80.7107 40.1469C80.7107 42.3625 82.506 44.1596 84.7234 44.1596C86.9409 44.1596 88.7362 42.3614 88.7362 40.1469C88.7362 37.9293 86.9409 36.1341 84.7234 36.1341C82.506 36.1341 80.7107 37.9294 80.7107 40.1469Z" fill="#C86CFD"/>
<path id="Vector_2" d="M45.65 65.2875L33.9833 70.4708C32.7833 71.0042 32 72.2042 32 73.5208V81.3542C32 90.6042 38.4 99.2542 47 101.354C55.6 99.2542 62 90.6042 62 81.3542V73.5208C62 72.2042 61.2167 71.0042 60.0167 70.4708L48.35 65.2875C47.5 64.9042 46.5 64.9042 45.65 65.2875ZM42.4833 90.1708L38.1667 85.8542C37.5167 85.2042 37.5167 84.1542 38.1667 83.5042C38.8167 82.8542 39.8667 82.8542 40.5167 83.5042L43.6667 86.6375L53.4667 76.8375C54.1167 76.1875 55.1667 76.1875 55.8167 76.8375C56.4667 77.4875 56.4667 78.5375 55.8167 79.1875L44.8333 90.1708C44.2 90.8208 43.1333 90.8208 42.4833 90.1708Z" fill="#FFA401"/>
</g>
</svg>
